<mxfile host="app.diagrams.net" agent="Mozilla/5.0 (Windows NT 10.0; Win64; x64; rv:138.0) Gecko/20100101 Firefox/138.0" version="26.2.14">
  <diagram name="Σελίδα-1" id="4SPKYXFTKh28RuCQqEPZ">
    <mxGraphModel dx="5127" dy="3072" grid="1" gridSize="10" guides="1" tooltips="1" connect="1" arrows="1" fold="1" page="1" pageScale="1" pageWidth="827" pageHeight="1169" math="0" shadow="0">
      <root>
        <mxCell id="0" />
        <mxCell id="1" parent="0" />
        <mxCell id="xvAV7KWPORQprkaNA7NY-1" style="edgeStyle=none;shape=connector;rounded=0;orthogonalLoop=1;jettySize=auto;html=1;entryX=0.361;entryY=0.94;entryDx=0;entryDy=0;entryPerimeter=0;strokeColor=#FF3333;align=center;verticalAlign=middle;fontFamily=Helvetica;fontSize=11;fontColor=default;labelBackgroundColor=none;endArrow=none;" edge="1" parent="1">
          <mxGeometry relative="1" as="geometry">
            <Array as="points">
              <mxPoint x="370" y="980" />
            </Array>
            <mxPoint x="627.9050000000002" y="598.8" as="targetPoint" />
          </mxGeometry>
        </mxCell>
        <mxCell id="xvAV7KWPORQprkaNA7NY-2" style="edgeStyle=none;shape=connector;rounded=0;orthogonalLoop=1;jettySize=auto;html=1;entryX=0.361;entryY=0.94;entryDx=0;entryDy=0;entryPerimeter=0;strokeColor=#FF3333;align=center;verticalAlign=middle;fontFamily=Helvetica;fontSize=11;fontColor=default;labelBackgroundColor=none;endArrow=none;" edge="1" parent="1">
          <mxGeometry relative="1" as="geometry">
            <Array as="points">
              <mxPoint x="365" y="2119" />
            </Array>
            <mxPoint x="622.9050000000007" y="1737.7999999999993" as="targetPoint" />
          </mxGeometry>
        </mxCell>
        <mxCell id="xvAV7KWPORQprkaNA7NY-3" style="edgeStyle=none;shape=connector;rounded=0;orthogonalLoop=1;jettySize=auto;html=1;entryX=0.361;entryY=0.94;entryDx=0;entryDy=0;entryPerimeter=0;strokeColor=#FF3333;align=center;verticalAlign=middle;fontFamily=Helvetica;fontSize=11;fontColor=default;labelBackgroundColor=none;endArrow=none;" edge="1" parent="1">
          <mxGeometry relative="1" as="geometry">
            <Array as="points">
              <mxPoint x="2498" y="5220" />
            </Array>
            <mxPoint x="2755.905" y="4838.799999999999" as="targetPoint" />
          </mxGeometry>
        </mxCell>
        <mxCell id="xvAV7KWPORQprkaNA7NY-4" style="edgeStyle=none;shape=connector;rounded=0;orthogonalLoop=1;jettySize=auto;html=1;entryX=0.361;entryY=0.94;entryDx=0;entryDy=0;entryPerimeter=0;strokeColor=#FF3333;align=center;verticalAlign=middle;fontFamily=Helvetica;fontSize=11;fontColor=default;labelBackgroundColor=none;endArrow=none;" edge="1" parent="1">
          <mxGeometry relative="1" as="geometry">
            <Array as="points">
              <mxPoint x="638" y="1910" />
            </Array>
            <mxPoint x="895.9050000000002" y="1528.8" as="targetPoint" />
          </mxGeometry>
        </mxCell>
        <mxCell id="xvAV7KWPORQprkaNA7NY-5" style="edgeStyle=none;shape=connector;rounded=0;orthogonalLoop=1;jettySize=auto;html=1;entryX=0.361;entryY=0.94;entryDx=0;entryDy=0;entryPerimeter=0;strokeColor=#FF3333;align=center;verticalAlign=middle;fontFamily=Helvetica;fontSize=11;fontColor=default;labelBackgroundColor=none;endArrow=none;" edge="1" parent="1">
          <mxGeometry relative="1" as="geometry">
            <Array as="points">
              <mxPoint x="358" y="1030" />
            </Array>
            <mxPoint x="615.9050000000002" y="648.8" as="targetPoint" />
          </mxGeometry>
        </mxCell>
        <mxCell id="xvAV7KWPORQprkaNA7NY-6" style="edgeStyle=none;shape=connector;rounded=0;orthogonalLoop=1;jettySize=auto;html=1;entryX=0.361;entryY=0.94;entryDx=0;entryDy=0;entryPerimeter=0;strokeColor=#FF3333;align=center;verticalAlign=middle;fontFamily=Helvetica;fontSize=11;fontColor=default;labelBackgroundColor=none;endArrow=none;" edge="1" parent="1">
          <mxGeometry relative="1" as="geometry">
            <Array as="points">
              <mxPoint x="630" y="890" />
            </Array>
            <mxPoint x="887.9050000000002" y="508.79999999999995" as="targetPoint" />
          </mxGeometry>
        </mxCell>
        <mxCell id="xvAV7KWPORQprkaNA7NY-7" style="edgeStyle=none;shape=connector;rounded=0;orthogonalLoop=1;jettySize=auto;html=1;entryX=0.361;entryY=0.94;entryDx=0;entryDy=0;entryPerimeter=0;strokeColor=#FF3333;align=center;verticalAlign=middle;fontFamily=Helvetica;fontSize=11;fontColor=default;labelBackgroundColor=none;endArrow=none;" edge="1" parent="1">
          <mxGeometry relative="1" as="geometry">
            <Array as="points">
              <mxPoint x="625" y="2029" />
            </Array>
            <mxPoint x="882.9050000000007" y="1647.7999999999993" as="targetPoint" />
          </mxGeometry>
        </mxCell>
        <mxCell id="xvAV7KWPORQprkaNA7NY-8" style="edgeStyle=none;shape=connector;rounded=0;orthogonalLoop=1;jettySize=auto;html=1;entryX=0.361;entryY=0.94;entryDx=0;entryDy=0;entryPerimeter=0;strokeColor=#FF3333;align=center;verticalAlign=middle;fontFamily=Helvetica;fontSize=11;fontColor=default;labelBackgroundColor=none;endArrow=none;" edge="1" parent="1">
          <mxGeometry relative="1" as="geometry">
            <Array as="points">
              <mxPoint x="2758" y="5130" />
            </Array>
            <mxPoint x="3015.905" y="4748.799999999999" as="targetPoint" />
          </mxGeometry>
        </mxCell>
        <mxCell id="xvAV7KWPORQprkaNA7NY-9" style="edgeStyle=none;shape=connector;rounded=0;orthogonalLoop=1;jettySize=auto;html=1;entryX=0.361;entryY=0.94;entryDx=0;entryDy=0;entryPerimeter=0;strokeColor=#FF3333;align=center;verticalAlign=middle;fontFamily=Helvetica;fontSize=11;fontColor=default;labelBackgroundColor=none;endArrow=none;" edge="1" parent="1">
          <mxGeometry relative="1" as="geometry">
            <Array as="points">
              <mxPoint x="898" y="1820" />
            </Array>
            <mxPoint x="1155.9050000000002" y="1438.8" as="targetPoint" />
          </mxGeometry>
        </mxCell>
        <mxCell id="xvAV7KWPORQprkaNA7NY-10" style="edgeStyle=none;shape=connector;rounded=0;orthogonalLoop=1;jettySize=auto;html=1;entryX=0.361;entryY=0.94;entryDx=0;entryDy=0;entryPerimeter=0;strokeColor=#FF3333;align=center;verticalAlign=middle;fontFamily=Helvetica;fontSize=11;fontColor=default;labelBackgroundColor=none;endArrow=none;" edge="1" parent="1">
          <mxGeometry relative="1" as="geometry">
            <Array as="points">
              <mxPoint x="618" y="940" />
            </Array>
            <mxPoint x="875.9050000000002" y="558.8" as="targetPoint" />
          </mxGeometry>
        </mxCell>
        <mxCell id="xvAV7KWPORQprkaNA7NY-11" style="edgeStyle=none;shape=connector;rounded=0;orthogonalLoop=1;jettySize=auto;html=1;entryX=0.361;entryY=0.94;entryDx=0;entryDy=0;entryPerimeter=0;strokeColor=#FF3333;align=center;verticalAlign=middle;fontFamily=Helvetica;fontSize=11;fontColor=default;labelBackgroundColor=none;endArrow=none;" edge="1" parent="1">
          <mxGeometry relative="1" as="geometry">
            <Array as="points">
              <mxPoint x="360" y="960" />
            </Array>
            <mxPoint x="617.9050000000002" y="578.8" as="targetPoint" />
          </mxGeometry>
        </mxCell>
        <mxCell id="xvAV7KWPORQprkaNA7NY-12" style="edgeStyle=none;shape=connector;rounded=0;orthogonalLoop=1;jettySize=auto;html=1;entryX=0.361;entryY=0.94;entryDx=0;entryDy=0;entryPerimeter=0;strokeColor=#FF3333;align=center;verticalAlign=middle;fontFamily=Helvetica;fontSize=11;fontColor=default;labelBackgroundColor=none;endArrow=none;" edge="1" parent="1">
          <mxGeometry relative="1" as="geometry">
            <Array as="points">
              <mxPoint x="355" y="2099" />
            </Array>
            <mxPoint x="612.9050000000007" y="1717.7999999999993" as="targetPoint" />
          </mxGeometry>
        </mxCell>
        <mxCell id="xvAV7KWPORQprkaNA7NY-13" style="edgeStyle=none;shape=connector;rounded=0;orthogonalLoop=1;jettySize=auto;html=1;entryX=0.361;entryY=0.94;entryDx=0;entryDy=0;entryPerimeter=0;strokeColor=#FF3333;align=center;verticalAlign=middle;fontFamily=Helvetica;fontSize=11;fontColor=default;labelBackgroundColor=none;endArrow=none;" edge="1" parent="1">
          <mxGeometry relative="1" as="geometry">
            <Array as="points">
              <mxPoint x="2488" y="5200" />
            </Array>
            <mxPoint x="2745.905" y="4818.799999999999" as="targetPoint" />
          </mxGeometry>
        </mxCell>
        <mxCell id="xvAV7KWPORQprkaNA7NY-14" style="edgeStyle=none;shape=connector;rounded=0;orthogonalLoop=1;jettySize=auto;html=1;entryX=0.361;entryY=0.94;entryDx=0;entryDy=0;entryPerimeter=0;strokeColor=#FF3333;align=center;verticalAlign=middle;fontFamily=Helvetica;fontSize=11;fontColor=default;labelBackgroundColor=none;endArrow=none;" edge="1" parent="1">
          <mxGeometry relative="1" as="geometry">
            <Array as="points">
              <mxPoint x="628" y="1890" />
            </Array>
            <mxPoint x="885.9050000000002" y="1508.8" as="targetPoint" />
          </mxGeometry>
        </mxCell>
        <mxCell id="xvAV7KWPORQprkaNA7NY-15" style="edgeStyle=none;shape=connector;rounded=0;orthogonalLoop=1;jettySize=auto;html=1;entryX=0.361;entryY=0.94;entryDx=0;entryDy=0;entryPerimeter=0;strokeColor=#FF3333;align=center;verticalAlign=middle;fontFamily=Helvetica;fontSize=11;fontColor=default;labelBackgroundColor=none;endArrow=none;" edge="1" parent="1">
          <mxGeometry relative="1" as="geometry">
            <Array as="points">
              <mxPoint x="348" y="1010" />
            </Array>
            <mxPoint x="605.9050000000002" y="628.8" as="targetPoint" />
          </mxGeometry>
        </mxCell>
        <mxCell id="xvAV7KWPORQprkaNA7NY-16" style="edgeStyle=none;shape=connector;rounded=0;orthogonalLoop=1;jettySize=auto;html=1;entryX=0.361;entryY=0.94;entryDx=0;entryDy=0;entryPerimeter=0;strokeColor=#FF3333;align=center;verticalAlign=middle;fontFamily=Helvetica;fontSize=11;fontColor=default;labelBackgroundColor=none;endArrow=none;" edge="1" parent="1">
          <mxGeometry relative="1" as="geometry">
            <Array as="points">
              <mxPoint x="1498" y="3230" />
            </Array>
            <mxPoint x="1755.9050000000002" y="2848.8" as="targetPoint" />
          </mxGeometry>
        </mxCell>
        <mxCell id="xvAV7KWPORQprkaNA7NY-17" style="edgeStyle=none;shape=connector;rounded=0;orthogonalLoop=1;jettySize=auto;html=1;entryX=0.361;entryY=0.94;entryDx=0;entryDy=0;entryPerimeter=0;strokeColor=#FF3333;align=center;verticalAlign=middle;fontFamily=Helvetica;fontSize=11;fontColor=default;labelBackgroundColor=none;endArrow=none;" edge="1" parent="1">
          <mxGeometry relative="1" as="geometry">
            <Array as="points">
              <mxPoint x="910" y="2675" />
            </Array>
            <mxPoint x="1167.9050000000002" y="2293.8" as="targetPoint" />
          </mxGeometry>
        </mxCell>
        <mxCell id="xvAV7KWPORQprkaNA7NY-18" style="edgeStyle=none;shape=connector;rounded=0;orthogonalLoop=1;jettySize=auto;html=1;entryX=0.361;entryY=0.94;entryDx=0;entryDy=0;entryPerimeter=0;strokeColor=#FF3333;align=center;verticalAlign=middle;fontFamily=Helvetica;fontSize=11;fontColor=default;labelBackgroundColor=none;endArrow=none;" edge="1" parent="1">
          <mxGeometry relative="1" as="geometry">
            <Array as="points">
              <mxPoint x="905" y="3814" />
            </Array>
            <mxPoint x="1162.9050000000007" y="3432.7999999999993" as="targetPoint" />
          </mxGeometry>
        </mxCell>
        <mxCell id="xvAV7KWPORQprkaNA7NY-19" style="edgeStyle=none;shape=connector;rounded=0;orthogonalLoop=1;jettySize=auto;html=1;entryX=0.361;entryY=0.94;entryDx=0;entryDy=0;entryPerimeter=0;strokeColor=#FF3333;align=center;verticalAlign=middle;fontFamily=Helvetica;fontSize=11;fontColor=default;labelBackgroundColor=none;endArrow=none;" edge="1" parent="1">
          <mxGeometry relative="1" as="geometry">
            <Array as="points">
              <mxPoint x="3038" y="6915" />
            </Array>
            <mxPoint x="3295.905" y="6533.799999999999" as="targetPoint" />
          </mxGeometry>
        </mxCell>
        <mxCell id="xvAV7KWPORQprkaNA7NY-20" style="edgeStyle=none;shape=connector;rounded=0;orthogonalLoop=1;jettySize=auto;html=1;entryX=0.361;entryY=0.94;entryDx=0;entryDy=0;entryPerimeter=0;strokeColor=#FF3333;align=center;verticalAlign=middle;fontFamily=Helvetica;fontSize=11;fontColor=default;labelBackgroundColor=none;endArrow=none;" edge="1" parent="1">
          <mxGeometry relative="1" as="geometry">
            <Array as="points">
              <mxPoint x="1178" y="3605" />
            </Array>
            <mxPoint x="1435.9050000000002" y="3223.8" as="targetPoint" />
          </mxGeometry>
        </mxCell>
        <mxCell id="xvAV7KWPORQprkaNA7NY-21" style="edgeStyle=none;shape=connector;rounded=0;orthogonalLoop=1;jettySize=auto;html=1;entryX=0.361;entryY=0.94;entryDx=0;entryDy=0;entryPerimeter=0;strokeColor=#FF3333;align=center;verticalAlign=middle;fontFamily=Helvetica;fontSize=11;fontColor=default;labelBackgroundColor=none;endArrow=none;" edge="1" parent="1">
          <mxGeometry relative="1" as="geometry">
            <Array as="points">
              <mxPoint x="898" y="2725" />
            </Array>
            <mxPoint x="1155.9050000000002" y="2343.8" as="targetPoint" />
          </mxGeometry>
        </mxCell>
        <mxCell id="xvAV7KWPORQprkaNA7NY-22" style="edgeStyle=none;shape=connector;rounded=0;orthogonalLoop=1;jettySize=auto;html=1;entryX=0.361;entryY=0.94;entryDx=0;entryDy=0;entryPerimeter=0;strokeColor=#FF3333;align=center;verticalAlign=middle;fontFamily=Helvetica;fontSize=11;fontColor=default;labelBackgroundColor=none;endArrow=none;" edge="1" parent="1">
          <mxGeometry relative="1" as="geometry">
            <Array as="points">
              <mxPoint x="1170" y="2585" />
            </Array>
            <mxPoint x="1427.9050000000002" y="2203.8" as="targetPoint" />
          </mxGeometry>
        </mxCell>
        <mxCell id="xvAV7KWPORQprkaNA7NY-23" style="edgeStyle=none;shape=connector;rounded=0;orthogonalLoop=1;jettySize=auto;html=1;entryX=0.361;entryY=0.94;entryDx=0;entryDy=0;entryPerimeter=0;strokeColor=#FF3333;align=center;verticalAlign=middle;fontFamily=Helvetica;fontSize=11;fontColor=default;labelBackgroundColor=none;endArrow=none;" edge="1" parent="1">
          <mxGeometry relative="1" as="geometry">
            <Array as="points">
              <mxPoint x="1165" y="3724" />
            </Array>
            <mxPoint x="1422.9050000000007" y="3342.7999999999993" as="targetPoint" />
          </mxGeometry>
        </mxCell>
        <mxCell id="xvAV7KWPORQprkaNA7NY-24" style="edgeStyle=none;shape=connector;rounded=0;orthogonalLoop=1;jettySize=auto;html=1;entryX=0.361;entryY=0.94;entryDx=0;entryDy=0;entryPerimeter=0;strokeColor=#FF3333;align=center;verticalAlign=middle;fontFamily=Helvetica;fontSize=11;fontColor=default;labelBackgroundColor=none;endArrow=none;" edge="1" parent="1">
          <mxGeometry relative="1" as="geometry">
            <Array as="points">
              <mxPoint x="3298" y="6825" />
            </Array>
            <mxPoint x="3555.905" y="6443.799999999999" as="targetPoint" />
          </mxGeometry>
        </mxCell>
        <mxCell id="xvAV7KWPORQprkaNA7NY-25" style="edgeStyle=none;shape=connector;rounded=0;orthogonalLoop=1;jettySize=auto;html=1;entryX=0.361;entryY=0.94;entryDx=0;entryDy=0;entryPerimeter=0;strokeColor=#FF3333;align=center;verticalAlign=middle;fontFamily=Helvetica;fontSize=11;fontColor=default;labelBackgroundColor=none;endArrow=none;" edge="1" parent="1">
          <mxGeometry relative="1" as="geometry">
            <Array as="points">
              <mxPoint x="1438" y="3515" />
            </Array>
            <mxPoint x="1695.9050000000002" y="3133.8" as="targetPoint" />
          </mxGeometry>
        </mxCell>
        <mxCell id="xvAV7KWPORQprkaNA7NY-26" style="edgeStyle=none;shape=connector;rounded=0;orthogonalLoop=1;jettySize=auto;html=1;entryX=0.361;entryY=0.94;entryDx=0;entryDy=0;entryPerimeter=0;strokeColor=#FF3333;align=center;verticalAlign=middle;fontFamily=Helvetica;fontSize=11;fontColor=default;labelBackgroundColor=none;endArrow=none;" edge="1" parent="1">
          <mxGeometry relative="1" as="geometry">
            <Array as="points">
              <mxPoint x="1158" y="2635" />
            </Array>
            <mxPoint x="1415.9050000000002" y="2253.8" as="targetPoint" />
          </mxGeometry>
        </mxCell>
        <mxCell id="xvAV7KWPORQprkaNA7NY-27" style="edgeStyle=none;shape=connector;rounded=0;orthogonalLoop=1;jettySize=auto;html=1;entryX=0.361;entryY=0.94;entryDx=0;entryDy=0;entryPerimeter=0;strokeColor=#FF3333;align=center;verticalAlign=middle;fontFamily=Helvetica;fontSize=11;fontColor=default;labelBackgroundColor=none;endArrow=none;" edge="1" parent="1">
          <mxGeometry relative="1" as="geometry">
            <Array as="points">
              <mxPoint x="610" y="1325" />
            </Array>
            <mxPoint x="867.9050000000002" y="943.8" as="targetPoint" />
          </mxGeometry>
        </mxCell>
        <mxCell id="xvAV7KWPORQprkaNA7NY-28" style="edgeStyle=none;shape=connector;rounded=0;orthogonalLoop=1;jettySize=auto;html=1;entryX=0.361;entryY=0.94;entryDx=0;entryDy=0;entryPerimeter=0;strokeColor=#FF3333;align=center;verticalAlign=middle;fontFamily=Helvetica;fontSize=11;fontColor=default;labelBackgroundColor=none;endArrow=none;" edge="1" parent="1">
          <mxGeometry relative="1" as="geometry">
            <Array as="points">
              <mxPoint x="605" y="2464" />
            </Array>
            <mxPoint x="862.9050000000007" y="2082.7999999999993" as="targetPoint" />
          </mxGeometry>
        </mxCell>
        <mxCell id="xvAV7KWPORQprkaNA7NY-29" style="edgeStyle=none;shape=connector;rounded=0;orthogonalLoop=1;jettySize=auto;html=1;entryX=0.361;entryY=0.94;entryDx=0;entryDy=0;entryPerimeter=0;strokeColor=#FF3333;align=center;verticalAlign=middle;fontFamily=Helvetica;fontSize=11;fontColor=default;labelBackgroundColor=none;endArrow=none;" edge="1" parent="1">
          <mxGeometry relative="1" as="geometry">
            <Array as="points">
              <mxPoint x="2738" y="5565" />
            </Array>
            <mxPoint x="2995.905" y="5183.799999999999" as="targetPoint" />
          </mxGeometry>
        </mxCell>
        <mxCell id="xvAV7KWPORQprkaNA7NY-30" style="edgeStyle=none;shape=connector;rounded=0;orthogonalLoop=1;jettySize=auto;html=1;entryX=0.361;entryY=0.94;entryDx=0;entryDy=0;entryPerimeter=0;strokeColor=#FF3333;align=center;verticalAlign=middle;fontFamily=Helvetica;fontSize=11;fontColor=default;labelBackgroundColor=none;endArrow=none;" edge="1" parent="1">
          <mxGeometry relative="1" as="geometry">
            <Array as="points">
              <mxPoint x="878" y="2255" />
            </Array>
            <mxPoint x="1135.9050000000002" y="1873.8" as="targetPoint" />
          </mxGeometry>
        </mxCell>
        <mxCell id="xvAV7KWPORQprkaNA7NY-31" style="edgeStyle=none;shape=connector;rounded=0;orthogonalLoop=1;jettySize=auto;html=1;entryX=0.361;entryY=0.94;entryDx=0;entryDy=0;entryPerimeter=0;strokeColor=#FF3333;align=center;verticalAlign=middle;fontFamily=Helvetica;fontSize=11;fontColor=default;labelBackgroundColor=none;endArrow=none;" edge="1" parent="1">
          <mxGeometry relative="1" as="geometry">
            <Array as="points">
              <mxPoint x="598" y="1375" />
            </Array>
            <mxPoint x="855.9050000000002" y="993.8" as="targetPoint" />
          </mxGeometry>
        </mxCell>
        <mxCell id="xvAV7KWPORQprkaNA7NY-32" style="edgeStyle=none;shape=connector;rounded=0;orthogonalLoop=1;jettySize=auto;html=1;entryX=0.361;entryY=0.94;entryDx=0;entryDy=0;entryPerimeter=0;strokeColor=#FF3333;align=center;verticalAlign=middle;fontFamily=Helvetica;fontSize=11;fontColor=default;labelBackgroundColor=none;endArrow=none;" edge="1" parent="1">
          <mxGeometry relative="1" as="geometry">
            <Array as="points">
              <mxPoint x="870" y="1235" />
            </Array>
            <mxPoint x="1127.9050000000002" y="853.8" as="targetPoint" />
          </mxGeometry>
        </mxCell>
        <mxCell id="xvAV7KWPORQprkaNA7NY-33" style="edgeStyle=none;shape=connector;rounded=0;orthogonalLoop=1;jettySize=auto;html=1;entryX=0.361;entryY=0.94;entryDx=0;entryDy=0;entryPerimeter=0;strokeColor=#FF3333;align=center;verticalAlign=middle;fontFamily=Helvetica;fontSize=11;fontColor=default;labelBackgroundColor=none;endArrow=none;" edge="1" parent="1">
          <mxGeometry relative="1" as="geometry">
            <Array as="points">
              <mxPoint x="865" y="2374" />
            </Array>
            <mxPoint x="1122.9050000000007" y="1992.7999999999993" as="targetPoint" />
          </mxGeometry>
        </mxCell>
        <mxCell id="xvAV7KWPORQprkaNA7NY-34" style="edgeStyle=none;shape=connector;rounded=0;orthogonalLoop=1;jettySize=auto;html=1;entryX=0.361;entryY=0.94;entryDx=0;entryDy=0;entryPerimeter=0;strokeColor=#FF3333;align=center;verticalAlign=middle;fontFamily=Helvetica;fontSize=11;fontColor=default;labelBackgroundColor=none;endArrow=none;" edge="1" parent="1">
          <mxGeometry relative="1" as="geometry">
            <Array as="points">
              <mxPoint x="2998" y="5475" />
            </Array>
            <mxPoint x="3255.905" y="5093.799999999999" as="targetPoint" />
          </mxGeometry>
        </mxCell>
        <mxCell id="xvAV7KWPORQprkaNA7NY-35" style="edgeStyle=none;shape=connector;rounded=0;orthogonalLoop=1;jettySize=auto;html=1;entryX=0.361;entryY=0.94;entryDx=0;entryDy=0;entryPerimeter=0;strokeColor=#FF3333;align=center;verticalAlign=middle;fontFamily=Helvetica;fontSize=11;fontColor=default;labelBackgroundColor=none;endArrow=none;" edge="1" parent="1">
          <mxGeometry relative="1" as="geometry">
            <Array as="points">
              <mxPoint x="1138" y="2165" />
            </Array>
            <mxPoint x="1395.9050000000002" y="1783.8" as="targetPoint" />
          </mxGeometry>
        </mxCell>
        <mxCell id="xvAV7KWPORQprkaNA7NY-36" style="edgeStyle=none;shape=connector;rounded=0;orthogonalLoop=1;jettySize=auto;html=1;entryX=0.361;entryY=0.94;entryDx=0;entryDy=0;entryPerimeter=0;strokeColor=#FF3333;align=center;verticalAlign=middle;fontFamily=Helvetica;fontSize=11;fontColor=default;labelBackgroundColor=none;endArrow=none;" edge="1" parent="1">
          <mxGeometry relative="1" as="geometry">
            <Array as="points">
              <mxPoint x="858" y="1285" />
            </Array>
            <mxPoint x="1115.9050000000002" y="903.8" as="targetPoint" />
          </mxGeometry>
        </mxCell>
        <mxCell id="xvAV7KWPORQprkaNA7NY-37" style="edgeStyle=none;shape=connector;rounded=0;orthogonalLoop=1;jettySize=auto;html=1;entryX=0.361;entryY=0.94;entryDx=0;entryDy=0;entryPerimeter=0;strokeColor=#FF3333;align=center;verticalAlign=middle;fontFamily=Helvetica;fontSize=11;fontColor=default;labelBackgroundColor=none;endArrow=none;" edge="1" parent="1">
          <mxGeometry relative="1" as="geometry">
            <Array as="points">
              <mxPoint x="1040" y="1180" />
            </Array>
            <mxPoint x="1297.9050000000002" y="798.8" as="targetPoint" />
          </mxGeometry>
        </mxCell>
        <mxCell id="xvAV7KWPORQprkaNA7NY-38" style="edgeStyle=none;shape=connector;rounded=0;orthogonalLoop=1;jettySize=auto;html=1;entryX=0.361;entryY=0.94;entryDx=0;entryDy=0;entryPerimeter=0;strokeColor=#FF3333;align=center;verticalAlign=middle;fontFamily=Helvetica;fontSize=11;fontColor=default;labelBackgroundColor=none;endArrow=none;" edge="1" parent="1">
          <mxGeometry relative="1" as="geometry">
            <Array as="points">
              <mxPoint x="1035" y="2319" />
            </Array>
            <mxPoint x="1292.9050000000007" y="1937.7999999999993" as="targetPoint" />
          </mxGeometry>
        </mxCell>
        <mxCell id="xvAV7KWPORQprkaNA7NY-39" style="edgeStyle=none;shape=connector;rounded=0;orthogonalLoop=1;jettySize=auto;html=1;entryX=0.361;entryY=0.94;entryDx=0;entryDy=0;entryPerimeter=0;strokeColor=#FF3333;align=center;verticalAlign=middle;fontFamily=Helvetica;fontSize=11;fontColor=default;labelBackgroundColor=none;endArrow=none;" edge="1" parent="1">
          <mxGeometry relative="1" as="geometry">
            <Array as="points">
              <mxPoint x="3168" y="5420" />
            </Array>
            <mxPoint x="3425.905" y="5038.799999999999" as="targetPoint" />
          </mxGeometry>
        </mxCell>
        <mxCell id="xvAV7KWPORQprkaNA7NY-40" style="edgeStyle=none;shape=connector;rounded=0;orthogonalLoop=1;jettySize=auto;html=1;entryX=0.361;entryY=0.94;entryDx=0;entryDy=0;entryPerimeter=0;strokeColor=#FF3333;align=center;verticalAlign=middle;fontFamily=Helvetica;fontSize=11;fontColor=default;labelBackgroundColor=none;endArrow=none;" edge="1" parent="1">
          <mxGeometry relative="1" as="geometry">
            <Array as="points">
              <mxPoint x="1308" y="2110" />
            </Array>
            <mxPoint x="1565.9050000000002" y="1728.8000000000002" as="targetPoint" />
          </mxGeometry>
        </mxCell>
        <mxCell id="xvAV7KWPORQprkaNA7NY-41" style="edgeStyle=none;shape=connector;rounded=0;orthogonalLoop=1;jettySize=auto;html=1;entryX=0.361;entryY=0.94;entryDx=0;entryDy=0;entryPerimeter=0;strokeColor=#FF3333;align=center;verticalAlign=middle;fontFamily=Helvetica;fontSize=11;fontColor=default;labelBackgroundColor=none;endArrow=none;" edge="1" parent="1">
          <mxGeometry relative="1" as="geometry">
            <Array as="points">
              <mxPoint x="1028" y="1230" />
            </Array>
            <mxPoint x="1285.9050000000002" y="848.8" as="targetPoint" />
          </mxGeometry>
        </mxCell>
        <mxCell id="xvAV7KWPORQprkaNA7NY-42" style="edgeStyle=none;shape=connector;rounded=0;orthogonalLoop=1;jettySize=auto;html=1;entryX=0.361;entryY=0.94;entryDx=0;entryDy=0;entryPerimeter=0;strokeColor=#FF3333;align=center;verticalAlign=middle;fontFamily=Helvetica;fontSize=11;fontColor=default;labelBackgroundColor=none;endArrow=none;" edge="1" parent="1">
          <mxGeometry relative="1" as="geometry">
            <Array as="points">
              <mxPoint x="1300" y="1090" />
            </Array>
            <mxPoint x="1557.9050000000002" y="708.8" as="targetPoint" />
          </mxGeometry>
        </mxCell>
        <mxCell id="xvAV7KWPORQprkaNA7NY-43" style="edgeStyle=none;shape=connector;rounded=0;orthogonalLoop=1;jettySize=auto;html=1;entryX=0.361;entryY=0.94;entryDx=0;entryDy=0;entryPerimeter=0;strokeColor=#FF3333;align=center;verticalAlign=middle;fontFamily=Helvetica;fontSize=11;fontColor=default;labelBackgroundColor=none;endArrow=none;" edge="1" parent="1">
          <mxGeometry relative="1" as="geometry">
            <Array as="points">
              <mxPoint x="1295" y="2229" />
            </Array>
            <mxPoint x="1552.9050000000007" y="1847.7999999999993" as="targetPoint" />
          </mxGeometry>
        </mxCell>
        <mxCell id="xvAV7KWPORQprkaNA7NY-44" style="edgeStyle=none;shape=connector;rounded=0;orthogonalLoop=1;jettySize=auto;html=1;entryX=0.361;entryY=0.94;entryDx=0;entryDy=0;entryPerimeter=0;strokeColor=#FF3333;align=center;verticalAlign=middle;fontFamily=Helvetica;fontSize=11;fontColor=default;labelBackgroundColor=none;endArrow=none;" edge="1" parent="1">
          <mxGeometry relative="1" as="geometry">
            <Array as="points">
              <mxPoint x="3428" y="5330" />
            </Array>
            <mxPoint x="3685.9050000000007" y="4948.799999999999" as="targetPoint" />
          </mxGeometry>
        </mxCell>
        <mxCell id="xvAV7KWPORQprkaNA7NY-45" style="edgeStyle=none;shape=connector;rounded=0;orthogonalLoop=1;jettySize=auto;html=1;entryX=0.361;entryY=0.94;entryDx=0;entryDy=0;entryPerimeter=0;strokeColor=#FF3333;align=center;verticalAlign=middle;fontFamily=Helvetica;fontSize=11;fontColor=default;labelBackgroundColor=none;endArrow=none;" edge="1" parent="1">
          <mxGeometry relative="1" as="geometry">
            <Array as="points">
              <mxPoint x="1568" y="2020" />
            </Array>
            <mxPoint x="1825.9050000000002" y="1638.8000000000002" as="targetPoint" />
          </mxGeometry>
        </mxCell>
        <mxCell id="xvAV7KWPORQprkaNA7NY-46" style="edgeStyle=none;shape=connector;rounded=0;orthogonalLoop=1;jettySize=auto;html=1;entryX=0.361;entryY=0.94;entryDx=0;entryDy=0;entryPerimeter=0;strokeColor=#FF3333;align=center;verticalAlign=middle;fontFamily=Helvetica;fontSize=11;fontColor=default;labelBackgroundColor=none;endArrow=none;" edge="1" parent="1">
          <mxGeometry relative="1" as="geometry">
            <Array as="points">
              <mxPoint x="1288" y="1140" />
            </Array>
            <mxPoint x="1545.9050000000002" y="758.8" as="targetPoint" />
          </mxGeometry>
        </mxCell>
        <mxCell id="xvAV7KWPORQprkaNA7NY-47" style="edgeStyle=none;shape=connector;rounded=0;orthogonalLoop=1;jettySize=auto;html=1;entryX=0.361;entryY=0.94;entryDx=0;entryDy=0;entryPerimeter=0;strokeColor=#FF3333;align=center;verticalAlign=middle;fontFamily=Helvetica;fontSize=11;fontColor=default;labelBackgroundColor=none;endArrow=none;" edge="1" parent="1">
          <mxGeometry relative="1" as="geometry">
            <Array as="points">
              <mxPoint x="1030" y="1160" />
            </Array>
            <mxPoint x="1287.9050000000002" y="778.8" as="targetPoint" />
          </mxGeometry>
        </mxCell>
        <mxCell id="xvAV7KWPORQprkaNA7NY-48" style="edgeStyle=none;shape=connector;rounded=0;orthogonalLoop=1;jettySize=auto;html=1;entryX=0.361;entryY=0.94;entryDx=0;entryDy=0;entryPerimeter=0;strokeColor=#FF3333;align=center;verticalAlign=middle;fontFamily=Helvetica;fontSize=11;fontColor=default;labelBackgroundColor=none;endArrow=none;" edge="1" parent="1">
          <mxGeometry relative="1" as="geometry">
            <Array as="points">
              <mxPoint x="1025" y="2299" />
            </Array>
            <mxPoint x="1282.9050000000007" y="1917.7999999999993" as="targetPoint" />
          </mxGeometry>
        </mxCell>
        <mxCell id="xvAV7KWPORQprkaNA7NY-49" style="edgeStyle=none;shape=connector;rounded=0;orthogonalLoop=1;jettySize=auto;html=1;entryX=0.361;entryY=0.94;entryDx=0;entryDy=0;entryPerimeter=0;strokeColor=#FF3333;align=center;verticalAlign=middle;fontFamily=Helvetica;fontSize=11;fontColor=default;labelBackgroundColor=none;endArrow=none;" edge="1" parent="1">
          <mxGeometry relative="1" as="geometry">
            <Array as="points">
              <mxPoint x="3158" y="5400" />
            </Array>
            <mxPoint x="3415.905" y="5018.799999999999" as="targetPoint" />
          </mxGeometry>
        </mxCell>
        <mxCell id="xvAV7KWPORQprkaNA7NY-50" style="edgeStyle=none;shape=connector;rounded=0;orthogonalLoop=1;jettySize=auto;html=1;entryX=0.361;entryY=0.94;entryDx=0;entryDy=0;entryPerimeter=0;strokeColor=#FF3333;align=center;verticalAlign=middle;fontFamily=Helvetica;fontSize=11;fontColor=default;labelBackgroundColor=none;endArrow=none;" edge="1" parent="1">
          <mxGeometry relative="1" as="geometry">
            <Array as="points">
              <mxPoint x="1298" y="2090" />
            </Array>
            <mxPoint x="1555.9050000000002" y="1708.8000000000002" as="targetPoint" />
          </mxGeometry>
        </mxCell>
        <mxCell id="xvAV7KWPORQprkaNA7NY-51" style="edgeStyle=none;shape=connector;rounded=0;orthogonalLoop=1;jettySize=auto;html=1;entryX=0.361;entryY=0.94;entryDx=0;entryDy=0;entryPerimeter=0;strokeColor=#FF3333;align=center;verticalAlign=middle;fontFamily=Helvetica;fontSize=11;fontColor=default;labelBackgroundColor=none;endArrow=none;" edge="1" parent="1">
          <mxGeometry relative="1" as="geometry">
            <Array as="points">
              <mxPoint x="1018" y="1210" />
            </Array>
            <mxPoint x="1275.9050000000002" y="828.8" as="targetPoint" />
          </mxGeometry>
        </mxCell>
        <mxCell id="xvAV7KWPORQprkaNA7NY-52" style="edgeStyle=none;shape=connector;rounded=0;orthogonalLoop=1;jettySize=auto;html=1;entryX=0.361;entryY=0.94;entryDx=0;entryDy=0;entryPerimeter=0;strokeColor=#FF3333;align=center;verticalAlign=middle;fontFamily=Helvetica;fontSize=11;fontColor=default;labelBackgroundColor=none;endArrow=none;" edge="1" parent="1">
          <mxGeometry relative="1" as="geometry">
            <Array as="points">
              <mxPoint x="2168" y="3430" />
            </Array>
            <mxPoint x="2425.905" y="3048.8" as="targetPoint" />
          </mxGeometry>
        </mxCell>
        <mxCell id="xvAV7KWPORQprkaNA7NY-53" style="edgeStyle=none;shape=connector;rounded=0;orthogonalLoop=1;jettySize=auto;html=1;entryX=0.361;entryY=0.94;entryDx=0;entryDy=0;entryPerimeter=0;strokeColor=#FF3333;align=center;verticalAlign=middle;fontFamily=Helvetica;fontSize=11;fontColor=default;labelBackgroundColor=none;endArrow=none;" edge="1" parent="1">
          <mxGeometry relative="1" as="geometry">
            <Array as="points">
              <mxPoint x="1580" y="2875" />
            </Array>
            <mxPoint x="1837.9050000000002" y="2493.8" as="targetPoint" />
          </mxGeometry>
        </mxCell>
        <mxCell id="xvAV7KWPORQprkaNA7NY-54" style="edgeStyle=none;shape=connector;rounded=0;orthogonalLoop=1;jettySize=auto;html=1;entryX=0.361;entryY=0.94;entryDx=0;entryDy=0;entryPerimeter=0;strokeColor=#FF3333;align=center;verticalAlign=middle;fontFamily=Helvetica;fontSize=11;fontColor=default;labelBackgroundColor=none;endArrow=none;" edge="1" parent="1">
          <mxGeometry relative="1" as="geometry">
            <Array as="points">
              <mxPoint x="1575" y="4014" />
            </Array>
            <mxPoint x="1832.9050000000007" y="3632.7999999999993" as="targetPoint" />
          </mxGeometry>
        </mxCell>
        <mxCell id="xvAV7KWPORQprkaNA7NY-55" style="edgeStyle=none;shape=connector;rounded=0;orthogonalLoop=1;jettySize=auto;html=1;entryX=0.361;entryY=0.94;entryDx=0;entryDy=0;entryPerimeter=0;strokeColor=#FF3333;align=center;verticalAlign=middle;fontFamily=Helvetica;fontSize=11;fontColor=default;labelBackgroundColor=none;endArrow=none;" edge="1" parent="1">
          <mxGeometry relative="1" as="geometry">
            <Array as="points">
              <mxPoint x="3708" y="7115" />
            </Array>
            <mxPoint x="3965.9050000000007" y="6733.799999999999" as="targetPoint" />
          </mxGeometry>
        </mxCell>
        <mxCell id="xvAV7KWPORQprkaNA7NY-56" style="edgeStyle=none;shape=connector;rounded=0;orthogonalLoop=1;jettySize=auto;html=1;entryX=0.361;entryY=0.94;entryDx=0;entryDy=0;entryPerimeter=0;strokeColor=#FF3333;align=center;verticalAlign=middle;fontFamily=Helvetica;fontSize=11;fontColor=default;labelBackgroundColor=none;endArrow=none;" edge="1" parent="1">
          <mxGeometry relative="1" as="geometry">
            <Array as="points">
              <mxPoint x="1848" y="3805" />
            </Array>
            <mxPoint x="2105.905" y="3423.8" as="targetPoint" />
          </mxGeometry>
        </mxCell>
        <mxCell id="xvAV7KWPORQprkaNA7NY-57" style="edgeStyle=none;shape=connector;rounded=0;orthogonalLoop=1;jettySize=auto;html=1;entryX=0.361;entryY=0.94;entryDx=0;entryDy=0;entryPerimeter=0;strokeColor=#FF3333;align=center;verticalAlign=middle;fontFamily=Helvetica;fontSize=11;fontColor=default;labelBackgroundColor=none;endArrow=none;" edge="1" parent="1">
          <mxGeometry relative="1" as="geometry">
            <Array as="points">
              <mxPoint x="1568" y="2925" />
            </Array>
            <mxPoint x="1825.9050000000002" y="2543.8" as="targetPoint" />
          </mxGeometry>
        </mxCell>
        <mxCell id="xvAV7KWPORQprkaNA7NY-58" style="edgeStyle=none;shape=connector;rounded=0;orthogonalLoop=1;jettySize=auto;html=1;entryX=0.361;entryY=0.94;entryDx=0;entryDy=0;entryPerimeter=0;strokeColor=#FF3333;align=center;verticalAlign=middle;fontFamily=Helvetica;fontSize=11;fontColor=default;labelBackgroundColor=none;endArrow=none;" edge="1" parent="1">
          <mxGeometry relative="1" as="geometry">
            <Array as="points">
              <mxPoint x="1840" y="2785" />
            </Array>
            <mxPoint x="2097.905" y="2403.8" as="targetPoint" />
          </mxGeometry>
        </mxCell>
        <mxCell id="xvAV7KWPORQprkaNA7NY-59" style="edgeStyle=none;shape=connector;rounded=0;orthogonalLoop=1;jettySize=auto;html=1;entryX=0.361;entryY=0.94;entryDx=0;entryDy=0;entryPerimeter=0;strokeColor=#FF3333;align=center;verticalAlign=middle;fontFamily=Helvetica;fontSize=11;fontColor=default;labelBackgroundColor=none;endArrow=none;" edge="1" parent="1">
          <mxGeometry relative="1" as="geometry">
            <Array as="points">
              <mxPoint x="1835" y="3924" />
            </Array>
            <mxPoint x="2092.9050000000007" y="3542.7999999999993" as="targetPoint" />
          </mxGeometry>
        </mxCell>
        <mxCell id="xvAV7KWPORQprkaNA7NY-60" style="edgeStyle=none;shape=connector;rounded=0;orthogonalLoop=1;jettySize=auto;html=1;entryX=0.361;entryY=0.94;entryDx=0;entryDy=0;entryPerimeter=0;strokeColor=#FF3333;align=center;verticalAlign=middle;fontFamily=Helvetica;fontSize=11;fontColor=default;labelBackgroundColor=none;endArrow=none;" edge="1" parent="1">
          <mxGeometry relative="1" as="geometry">
            <Array as="points">
              <mxPoint x="3968" y="7025" />
            </Array>
            <mxPoint x="4225.905000000001" y="6643.799999999999" as="targetPoint" />
          </mxGeometry>
        </mxCell>
        <mxCell id="xvAV7KWPORQprkaNA7NY-61" style="edgeStyle=none;shape=connector;rounded=0;orthogonalLoop=1;jettySize=auto;html=1;entryX=0.361;entryY=0.94;entryDx=0;entryDy=0;entryPerimeter=0;strokeColor=#FF3333;align=center;verticalAlign=middle;fontFamily=Helvetica;fontSize=11;fontColor=default;labelBackgroundColor=none;endArrow=none;" edge="1" parent="1">
          <mxGeometry relative="1" as="geometry">
            <Array as="points">
              <mxPoint x="2108" y="3715" />
            </Array>
            <mxPoint x="2365.905" y="3333.8" as="targetPoint" />
          </mxGeometry>
        </mxCell>
        <mxCell id="xvAV7KWPORQprkaNA7NY-62" style="edgeStyle=none;shape=connector;rounded=0;orthogonalLoop=1;jettySize=auto;html=1;entryX=0.361;entryY=0.94;entryDx=0;entryDy=0;entryPerimeter=0;strokeColor=#FF3333;align=center;verticalAlign=middle;fontFamily=Helvetica;fontSize=11;fontColor=default;labelBackgroundColor=none;endArrow=none;" edge="1" parent="1">
          <mxGeometry relative="1" as="geometry">
            <Array as="points">
              <mxPoint x="1828" y="2835" />
            </Array>
            <mxPoint x="2085.905" y="2453.8" as="targetPoint" />
          </mxGeometry>
        </mxCell>
        <mxCell id="xvAV7KWPORQprkaNA7NY-63" style="edgeStyle=none;shape=connector;rounded=0;orthogonalLoop=1;jettySize=auto;html=1;entryX=0.361;entryY=0.94;entryDx=0;entryDy=0;entryPerimeter=0;strokeColor=#FF3333;align=center;verticalAlign=middle;fontFamily=Helvetica;fontSize=11;fontColor=default;labelBackgroundColor=none;endArrow=none;" edge="1" parent="1">
          <mxGeometry relative="1" as="geometry">
            <Array as="points">
              <mxPoint x="1280" y="1525" />
            </Array>
            <mxPoint x="1537.9050000000002" y="1143.8" as="targetPoint" />
          </mxGeometry>
        </mxCell>
        <mxCell id="xvAV7KWPORQprkaNA7NY-64" style="edgeStyle=none;shape=connector;rounded=0;orthogonalLoop=1;jettySize=auto;html=1;entryX=0.361;entryY=0.94;entryDx=0;entryDy=0;entryPerimeter=0;strokeColor=#FF3333;align=center;verticalAlign=middle;fontFamily=Helvetica;fontSize=11;fontColor=default;labelBackgroundColor=none;endArrow=none;" edge="1" parent="1">
          <mxGeometry relative="1" as="geometry">
            <Array as="points">
              <mxPoint x="1275" y="2664" />
            </Array>
            <mxPoint x="1532.9050000000007" y="2282.7999999999993" as="targetPoint" />
          </mxGeometry>
        </mxCell>
        <mxCell id="xvAV7KWPORQprkaNA7NY-65" style="edgeStyle=none;shape=connector;rounded=0;orthogonalLoop=1;jettySize=auto;html=1;entryX=0.361;entryY=0.94;entryDx=0;entryDy=0;entryPerimeter=0;strokeColor=#FF3333;align=center;verticalAlign=middle;fontFamily=Helvetica;fontSize=11;fontColor=default;labelBackgroundColor=none;endArrow=none;" edge="1" parent="1">
          <mxGeometry relative="1" as="geometry">
            <Array as="points">
              <mxPoint x="3408" y="5765" />
            </Array>
            <mxPoint x="3665.9050000000007" y="5383.799999999999" as="targetPoint" />
          </mxGeometry>
        </mxCell>
        <mxCell id="xvAV7KWPORQprkaNA7NY-66" style="edgeStyle=none;shape=connector;rounded=0;orthogonalLoop=1;jettySize=auto;html=1;entryX=0.361;entryY=0.94;entryDx=0;entryDy=0;entryPerimeter=0;strokeColor=#FF3333;align=center;verticalAlign=middle;fontFamily=Helvetica;fontSize=11;fontColor=default;labelBackgroundColor=none;endArrow=none;" edge="1" parent="1">
          <mxGeometry relative="1" as="geometry">
            <Array as="points">
              <mxPoint x="1548" y="2455" />
            </Array>
            <mxPoint x="1805.9050000000002" y="2073.8" as="targetPoint" />
          </mxGeometry>
        </mxCell>
        <mxCell id="xvAV7KWPORQprkaNA7NY-67" style="edgeStyle=none;shape=connector;rounded=0;orthogonalLoop=1;jettySize=auto;html=1;entryX=0.361;entryY=0.94;entryDx=0;entryDy=0;entryPerimeter=0;strokeColor=#FF3333;align=center;verticalAlign=middle;fontFamily=Helvetica;fontSize=11;fontColor=default;labelBackgroundColor=none;endArrow=none;" edge="1" parent="1">
          <mxGeometry relative="1" as="geometry">
            <Array as="points">
              <mxPoint x="1268" y="1575" />
            </Array>
            <mxPoint x="1525.9050000000002" y="1193.8" as="targetPoint" />
          </mxGeometry>
        </mxCell>
        <mxCell id="xvAV7KWPORQprkaNA7NY-68" style="edgeStyle=none;shape=connector;rounded=0;orthogonalLoop=1;jettySize=auto;html=1;entryX=0.361;entryY=0.94;entryDx=0;entryDy=0;entryPerimeter=0;strokeColor=#FF3333;align=center;verticalAlign=middle;fontFamily=Helvetica;fontSize=11;fontColor=default;labelBackgroundColor=none;endArrow=none;" edge="1" parent="1">
          <mxGeometry relative="1" as="geometry">
            <Array as="points">
              <mxPoint x="1540" y="1435" />
            </Array>
            <mxPoint x="1797.9050000000002" y="1053.8" as="targetPoint" />
          </mxGeometry>
        </mxCell>
        <mxCell id="xvAV7KWPORQprkaNA7NY-69" style="edgeStyle=none;shape=connector;rounded=0;orthogonalLoop=1;jettySize=auto;html=1;entryX=0.361;entryY=0.94;entryDx=0;entryDy=0;entryPerimeter=0;strokeColor=#FF3333;align=center;verticalAlign=middle;fontFamily=Helvetica;fontSize=11;fontColor=default;labelBackgroundColor=none;endArrow=none;" edge="1" parent="1">
          <mxGeometry relative="1" as="geometry">
            <Array as="points">
              <mxPoint x="1535" y="2574" />
            </Array>
            <mxPoint x="1792.9050000000007" y="2192.7999999999993" as="targetPoint" />
          </mxGeometry>
        </mxCell>
        <mxCell id="xvAV7KWPORQprkaNA7NY-70" style="edgeStyle=none;shape=connector;rounded=0;orthogonalLoop=1;jettySize=auto;html=1;entryX=0.361;entryY=0.94;entryDx=0;entryDy=0;entryPerimeter=0;strokeColor=#FF3333;align=center;verticalAlign=middle;fontFamily=Helvetica;fontSize=11;fontColor=default;labelBackgroundColor=none;endArrow=none;" edge="1" parent="1">
          <mxGeometry relative="1" as="geometry">
            <Array as="points">
              <mxPoint x="3668" y="5675" />
            </Array>
            <mxPoint x="3925.9050000000007" y="5293.799999999999" as="targetPoint" />
          </mxGeometry>
        </mxCell>
        <mxCell id="xvAV7KWPORQprkaNA7NY-71" style="edgeStyle=none;shape=connector;rounded=0;orthogonalLoop=1;jettySize=auto;html=1;entryX=0.361;entryY=0.94;entryDx=0;entryDy=0;entryPerimeter=0;strokeColor=#FF3333;align=center;verticalAlign=middle;fontFamily=Helvetica;fontSize=11;fontColor=default;labelBackgroundColor=none;endArrow=none;" edge="1" parent="1">
          <mxGeometry relative="1" as="geometry">
            <Array as="points">
              <mxPoint x="1808" y="2365" />
            </Array>
            <mxPoint x="2065.905" y="1983.8000000000002" as="targetPoint" />
          </mxGeometry>
        </mxCell>
        <mxCell id="xvAV7KWPORQprkaNA7NY-72" style="edgeStyle=none;shape=connector;rounded=0;orthogonalLoop=1;jettySize=auto;html=1;entryX=0.361;entryY=0.94;entryDx=0;entryDy=0;entryPerimeter=0;strokeColor=#FF3333;align=center;verticalAlign=middle;fontFamily=Helvetica;fontSize=11;fontColor=default;labelBackgroundColor=none;endArrow=none;" edge="1" parent="1">
          <mxGeometry relative="1" as="geometry">
            <Array as="points">
              <mxPoint x="1528" y="1485" />
            </Array>
            <mxPoint x="1785.9050000000002" y="1103.8" as="targetPoint" />
          </mxGeometry>
        </mxCell>
        <mxCell id="xvAV7KWPORQprkaNA7NY-73" value="uni_student" style="swimlane;fontStyle=0;childLayout=stackLayout;horizontal=1;startSize=26;fillColor=none;horizontalStack=0;resizeParent=1;resizeParentMax=0;resizeLast=0;collapsible=1;marginBottom=0;whiteSpace=wrap;html=1;" vertex="1" parent="1">
          <mxGeometry x="970" y="90" width="140" height="70" as="geometry" />
        </mxCell>
        <mxCell id="xvAV7KWPORQprkaNA7NY-74" value="feature_selection_screen" style="swimlane;fontStyle=0;childLayout=stackLayout;horizontal=1;startSize=26;fillColor=none;horizontalStack=0;resizeParent=1;resizeParentMax=0;resizeLast=0;collapsible=1;marginBottom=0;whiteSpace=wrap;html=1;" vertex="1" parent="1">
          <mxGeometry x="440" y="295" width="140" height="70" as="geometry" />
        </mxCell>
        <mxCell id="xvAV7KWPORQprkaNA7NY-75" value="" style="endArrow=none;html=1;rounded=0;exitX=1;exitY=0.5;exitDx=0;exitDy=0;entryX=0;entryY=0.5;entryDx=0;entryDy=0;" edge="1" parent="1" source="xvAV7KWPORQprkaNA7NY-74" target="xvAV7KWPORQprkaNA7NY-80">
          <mxGeometry width="50" height="50" relative="1" as="geometry">
            <mxPoint x="810" y="330" as="sourcePoint" />
            <mxPoint x="890" y="355" as="targetPoint" />
          </mxGeometry>
        </mxCell>
        <mxCell id="xvAV7KWPORQprkaNA7NY-76" style="edgeStyle=none;shape=connector;rounded=0;orthogonalLoop=1;jettySize=auto;html=1;entryX=0;entryY=0.5;entryDx=0;entryDy=0;strokeColor=default;align=center;verticalAlign=middle;fontFamily=Helvetica;fontSize=11;fontColor=default;labelBackgroundColor=default;endArrow=none;" edge="1" parent="1" source="xvAV7KWPORQprkaNA7NY-78" target="xvAV7KWPORQprkaNA7NY-74">
          <mxGeometry relative="1" as="geometry" />
        </mxCell>
        <mxCell id="xvAV7KWPORQprkaNA7NY-77" style="edgeStyle=none;shape=connector;rounded=0;orthogonalLoop=1;jettySize=auto;html=1;entryX=1;entryY=0.5;entryDx=0;entryDy=0;strokeColor=default;align=center;verticalAlign=middle;fontFamily=Helvetica;fontSize=11;fontColor=default;labelBackgroundColor=default;endArrow=none;exitX=0.75;exitY=1;exitDx=0;exitDy=0;" edge="1" parent="1" source="xvAV7KWPORQprkaNA7NY-78" target="xvAV7KWPORQprkaNA7NY-196">
          <mxGeometry relative="1" as="geometry" />
        </mxCell>
        <mxCell id="xvAV7KWPORQprkaNA7NY-78" value="&lt;div&gt;main_forum_screen&lt;/div&gt;" style="swimlane;fontStyle=0;childLayout=stackLayout;horizontal=1;startSize=26;fillColor=none;horizontalStack=0;resizeParent=1;resizeParentMax=0;resizeLast=0;collapsible=1;marginBottom=0;whiteSpace=wrap;html=1;" vertex="1" parent="1">
          <mxGeometry x="-350" y="494" width="140" height="70" as="geometry" />
        </mxCell>
        <mxCell id="xvAV7KWPORQprkaNA7NY-79" style="edgeStyle=none;shape=connector;rounded=0;orthogonalLoop=1;jettySize=auto;html=1;exitX=1;exitY=0.25;exitDx=0;exitDy=0;strokeColor=default;align=center;verticalAlign=middle;fontFamily=Helvetica;fontSize=11;fontColor=default;labelBackgroundColor=default;endArrow=none;entryX=0;entryY=0.75;entryDx=0;entryDy=0;" edge="1" parent="1" source="xvAV7KWPORQprkaNA7NY-80" target="xvAV7KWPORQprkaNA7NY-118">
          <mxGeometry relative="1" as="geometry">
            <mxPoint x="1110" y="210" as="targetPoint" />
          </mxGeometry>
        </mxCell>
        <mxCell id="xvAV7KWPORQprkaNA7NY-80" value="&lt;div&gt;starting_news_screen&lt;/div&gt;" style="swimlane;fontStyle=0;childLayout=stackLayout;horizontal=1;startSize=26;fillColor=none;horizontalStack=0;resizeParent=1;resizeParentMax=0;resizeLast=0;collapsible=1;marginBottom=0;whiteSpace=wrap;html=1;" vertex="1" parent="1">
          <mxGeometry x="890" y="295" width="140" height="70" as="geometry" />
        </mxCell>
        <mxCell id="xvAV7KWPORQprkaNA7NY-81" style="edgeStyle=none;shape=connector;rounded=0;orthogonalLoop=1;jettySize=auto;html=1;exitX=0;exitY=1;exitDx=0;exitDy=0;entryX=0;entryY=0.75;entryDx=0;entryDy=0;strokeColor=default;align=center;verticalAlign=middle;fontFamily=Helvetica;fontSize=11;fontColor=default;labelBackgroundColor=default;endArrow=none;" edge="1" parent="1" source="xvAV7KWPORQprkaNA7NY-80" target="xvAV7KWPORQprkaNA7NY-80">
          <mxGeometry relative="1" as="geometry" />
        </mxCell>
        <mxCell id="xvAV7KWPORQprkaNA7NY-82" style="edgeStyle=none;shape=connector;rounded=0;orthogonalLoop=1;jettySize=auto;html=1;strokeColor=default;align=center;verticalAlign=middle;fontFamily=Helvetica;fontSize=11;fontColor=default;labelBackgroundColor=default;endArrow=none;entryX=0.25;entryY=1;entryDx=0;entryDy=0;exitX=1;exitY=0.5;exitDx=0;exitDy=0;" edge="1" parent="1" source="xvAV7KWPORQprkaNA7NY-83" target="xvAV7KWPORQprkaNA7NY-80">
          <mxGeometry relative="1" as="geometry">
            <mxPoint x="815" y="435" as="sourcePoint" />
            <mxPoint x="910" y="370" as="targetPoint" />
          </mxGeometry>
        </mxCell>
        <mxCell id="xvAV7KWPORQprkaNA7NY-83" value="coffee_bar_screen" style="swimlane;fontStyle=0;childLayout=stackLayout;horizontal=1;startSize=26;fillColor=none;horizontalStack=0;resizeParent=1;resizeParentMax=0;resizeLast=0;collapsible=1;marginBottom=0;whiteSpace=wrap;html=1;" vertex="1" parent="1">
          <mxGeometry x="660" y="710" width="140" height="70" as="geometry" />
        </mxCell>
        <mxCell id="xvAV7KWPORQprkaNA7NY-84" value="uni_info_starting_screen" style="swimlane;fontStyle=0;childLayout=stackLayout;horizontal=1;startSize=26;fillColor=none;horizontalStack=0;resizeParent=1;resizeParentMax=0;resizeLast=0;collapsible=1;marginBottom=0;whiteSpace=wrap;html=1;" vertex="1" parent="1">
          <mxGeometry x="1510" y="930" width="140" height="70" as="geometry" />
        </mxCell>
        <mxCell id="xvAV7KWPORQprkaNA7NY-85" style="edgeStyle=none;shape=connector;rounded=0;orthogonalLoop=1;jettySize=auto;html=1;strokeColor=default;align=center;verticalAlign=middle;fontFamily=Helvetica;fontSize=11;fontColor=default;labelBackgroundColor=default;endArrow=none;entryX=0.5;entryY=1;entryDx=0;entryDy=0;" edge="1" parent="1" source="xvAV7KWPORQprkaNA7NY-84" target="xvAV7KWPORQprkaNA7NY-80">
          <mxGeometry relative="1" as="geometry">
            <mxPoint x="950" y="370" as="targetPoint" />
          </mxGeometry>
        </mxCell>
        <mxCell id="xvAV7KWPORQprkaNA7NY-86" style="edgeStyle=none;shape=connector;rounded=0;orthogonalLoop=1;jettySize=auto;html=1;entryX=1;entryY=0.75;entryDx=0;entryDy=0;strokeColor=default;align=center;verticalAlign=middle;fontFamily=Helvetica;fontSize=11;fontColor=default;labelBackgroundColor=default;endArrow=none;exitX=0;exitY=0.25;exitDx=0;exitDy=0;" edge="1" parent="1" source="xvAV7KWPORQprkaNA7NY-87" target="xvAV7KWPORQprkaNA7NY-80">
          <mxGeometry relative="1" as="geometry">
            <mxPoint x="1170" y="398.6538461538462" as="sourcePoint" />
          </mxGeometry>
        </mxCell>
        <mxCell id="xvAV7KWPORQprkaNA7NY-87" value="bus_schedule_starting_screen" style="swimlane;fontStyle=0;childLayout=stackLayout;horizontal=1;startSize=26;fillColor=none;horizontalStack=0;resizeParent=1;resizeParentMax=0;resizeLast=0;collapsible=1;marginBottom=0;whiteSpace=wrap;html=1;" vertex="1" parent="1">
          <mxGeometry x="1540" y="450" width="170" height="70" as="geometry" />
        </mxCell>
        <mxCell id="xvAV7KWPORQprkaNA7NY-88" style="edgeStyle=none;shape=connector;rounded=0;orthogonalLoop=1;jettySize=auto;html=1;entryX=0.5;entryY=0;entryDx=0;entryDy=0;strokeColor=default;align=center;verticalAlign=middle;fontFamily=Helvetica;fontSize=11;fontColor=default;labelBackgroundColor=default;endArrow=none;" edge="1" parent="1" source="xvAV7KWPORQprkaNA7NY-89" target="xvAV7KWPORQprkaNA7NY-74">
          <mxGeometry relative="1" as="geometry">
            <mxPoint x="519.3600000000006" y="374.2999999999997" as="targetPoint" />
          </mxGeometry>
        </mxCell>
        <mxCell id="xvAV7KWPORQprkaNA7NY-89" value="project_finder_screen" style="swimlane;fontStyle=0;childLayout=stackLayout;horizontal=1;startSize=26;fillColor=none;horizontalStack=0;resizeParent=1;resizeParentMax=0;resizeLast=0;collapsible=1;marginBottom=0;whiteSpace=wrap;html=1;" vertex="1" parent="1">
          <mxGeometry x="-620" y="-520" width="140" height="70" as="geometry" />
        </mxCell>
        <mxCell id="xvAV7KWPORQprkaNA7NY-90" style="edgeStyle=none;shape=connector;rounded=0;orthogonalLoop=1;jettySize=auto;html=1;entryX=0.25;entryY=1;entryDx=0;entryDy=0;strokeColor=default;align=center;verticalAlign=middle;fontFamily=Helvetica;fontSize=11;fontColor=default;labelBackgroundColor=default;endArrow=none;" edge="1" parent="1" source="xvAV7KWPORQprkaNA7NY-91" target="xvAV7KWPORQprkaNA7NY-74">
          <mxGeometry relative="1" as="geometry" />
        </mxCell>
        <mxCell id="xvAV7KWPORQprkaNA7NY-91" value="tasks_screen" style="swimlane;fontStyle=0;childLayout=stackLayout;horizontal=1;startSize=26;fillColor=none;horizontalStack=0;resizeParent=1;resizeParentMax=0;resizeLast=0;collapsible=1;marginBottom=0;whiteSpace=wrap;html=1;" vertex="1" parent="1">
          <mxGeometry x="-400" y="1160" width="140" height="70" as="geometry" />
        </mxCell>
        <mxCell id="xvAV7KWPORQprkaNA7NY-92" value="" style="endArrow=none;html=1;rounded=0;entryX=0.5;entryY=1;entryDx=0;entryDy=0;exitX=0.75;exitY=0;exitDx=0;exitDy=0;" edge="1" parent="1" source="xvAV7KWPORQprkaNA7NY-80" target="xvAV7KWPORQprkaNA7NY-73">
          <mxGeometry width="50" height="50" relative="1" as="geometry">
            <mxPoint x="1020" y="85" as="sourcePoint" />
            <mxPoint x="850" y="40" as="targetPoint" />
          </mxGeometry>
        </mxCell>
        <mxCell id="xvAV7KWPORQprkaNA7NY-93" value="food_schedule_screen" style="swimlane;fontStyle=0;childLayout=stackLayout;horizontal=1;startSize=26;fillColor=none;horizontalStack=0;resizeParent=1;resizeParentMax=0;resizeLast=0;collapsible=1;marginBottom=0;whiteSpace=wrap;html=1;" vertex="1" parent="1">
          <mxGeometry x="1320" y="1090" width="140" height="70" as="geometry" />
        </mxCell>
        <mxCell id="xvAV7KWPORQprkaNA7NY-94" style="edgeStyle=none;shape=connector;rounded=0;orthogonalLoop=1;jettySize=auto;html=1;strokeColor=default;align=center;verticalAlign=middle;fontFamily=Helvetica;fontSize=11;fontColor=default;labelBackgroundColor=default;endArrow=none;exitX=1;exitY=0;exitDx=0;exitDy=0;entryX=0.25;entryY=1;entryDx=0;entryDy=0;" edge="1" parent="1" source="xvAV7KWPORQprkaNA7NY-93" target="xvAV7KWPORQprkaNA7NY-84">
          <mxGeometry relative="1" as="geometry">
            <mxPoint x="1290" y="1090" as="sourcePoint" />
            <mxPoint x="1490" y="1040" as="targetPoint" />
          </mxGeometry>
        </mxCell>
        <mxCell id="xvAV7KWPORQprkaNA7NY-95" style="edgeStyle=none;shape=connector;rounded=0;orthogonalLoop=1;jettySize=auto;html=1;exitX=0;exitY=0.75;exitDx=0;exitDy=0;entryX=1;entryY=0.75;entryDx=0;entryDy=0;strokeColor=default;align=center;verticalAlign=middle;fontFamily=Helvetica;fontSize=11;fontColor=default;labelBackgroundColor=default;endArrow=none;" edge="1" parent="1" source="xvAV7KWPORQprkaNA7NY-96" target="xvAV7KWPORQprkaNA7NY-98">
          <mxGeometry relative="1" as="geometry" />
        </mxCell>
        <mxCell id="xvAV7KWPORQprkaNA7NY-96" value="database_UNINFO" style="swimlane;fontStyle=0;childLayout=stackLayout;horizontal=1;startSize=26;fillColor=none;horizontalStack=0;resizeParent=1;resizeParentMax=0;resizeLast=0;collapsible=1;marginBottom=0;whiteSpace=wrap;html=1;" vertex="1" parent="1">
          <mxGeometry x="1340" y="1330" width="140" height="70" as="geometry" />
        </mxCell>
        <mxCell id="xvAV7KWPORQprkaNA7NY-97" value="filter_screen" style="swimlane;fontStyle=0;childLayout=stackLayout;horizontal=1;startSize=26;fillColor=none;horizontalStack=0;resizeParent=1;resizeParentMax=0;resizeLast=0;collapsible=1;marginBottom=0;whiteSpace=wrap;html=1;" vertex="1" parent="1">
          <mxGeometry x="1160" y="1200" width="140" height="70" as="geometry" />
        </mxCell>
        <mxCell id="xvAV7KWPORQprkaNA7NY-98" value="critic_screen" style="swimlane;fontStyle=0;childLayout=stackLayout;horizontal=1;startSize=26;fillColor=none;horizontalStack=0;resizeParent=1;resizeParentMax=0;resizeLast=0;collapsible=1;marginBottom=0;whiteSpace=wrap;html=1;" vertex="1" parent="1">
          <mxGeometry x="1130" y="1360" width="140" height="70" as="geometry" />
        </mxCell>
        <mxCell id="xvAV7KWPORQprkaNA7NY-99" style="edgeStyle=none;shape=connector;rounded=0;orthogonalLoop=1;jettySize=auto;html=1;exitX=0.25;exitY=0;exitDx=0;exitDy=0;entryX=0.5;entryY=1;entryDx=0;entryDy=0;strokeColor=default;align=center;verticalAlign=middle;fontFamily=Helvetica;fontSize=11;fontColor=default;labelBackgroundColor=default;endArrow=none;" edge="1" parent="1" source="xvAV7KWPORQprkaNA7NY-100" target="xvAV7KWPORQprkaNA7NY-84">
          <mxGeometry relative="1" as="geometry">
            <mxPoint x="1560" y="1050.0000000000005" as="targetPoint" />
          </mxGeometry>
        </mxCell>
        <mxCell id="xvAV7KWPORQprkaNA7NY-100" value="gym_schedule_screen" style="swimlane;fontStyle=0;childLayout=stackLayout;horizontal=1;startSize=26;fillColor=none;horizontalStack=0;resizeParent=1;resizeParentMax=0;resizeLast=0;collapsible=1;marginBottom=0;whiteSpace=wrap;html=1;" vertex="1" parent="1">
          <mxGeometry x="1510" y="1150" width="140" height="70" as="geometry" />
        </mxCell>
        <mxCell id="xvAV7KWPORQprkaNA7NY-101" value="free_pitch_schedule_screen" style="swimlane;fontStyle=0;childLayout=stackLayout;horizontal=1;startSize=26;fillColor=none;horizontalStack=0;resizeParent=1;resizeParentMax=0;resizeLast=0;collapsible=1;marginBottom=0;whiteSpace=wrap;html=1;" vertex="1" parent="1">
          <mxGeometry x="1510" y="1260" width="170" height="70" as="geometry" />
        </mxCell>
        <mxCell id="xvAV7KWPORQprkaNA7NY-102" value="Extends" style="endArrow=block;endSize=16;endFill=0;html=1;rounded=0;entryX=0.5;entryY=1;entryDx=0;entryDy=0;exitX=0.394;exitY=0.043;exitDx=0;exitDy=0;exitPerimeter=0;" edge="1" parent="1" source="xvAV7KWPORQprkaNA7NY-101" target="xvAV7KWPORQprkaNA7NY-100">
          <mxGeometry width="160" relative="1" as="geometry">
            <mxPoint x="1340" y="1510" as="sourcePoint" />
            <mxPoint x="1490" y="1460" as="targetPoint" />
          </mxGeometry>
        </mxCell>
        <mxCell id="xvAV7KWPORQprkaNA7NY-103" value="" style="endArrow=diamondThin;endFill=1;endSize=24;html=1;rounded=0;entryX=0.75;entryY=1;entryDx=0;entryDy=0;exitX=0.75;exitY=0;exitDx=0;exitDy=0;" edge="1" parent="1" source="xvAV7KWPORQprkaNA7NY-97">
          <mxGeometry width="160" relative="1" as="geometry">
            <mxPoint x="1320" y="1310" as="sourcePoint" />
            <mxPoint x="1335" y="1160" as="targetPoint" />
          </mxGeometry>
        </mxCell>
        <mxCell id="xvAV7KWPORQprkaNA7NY-104" value="Extends" style="endArrow=block;endSize=16;endFill=0;html=1;rounded=0;exitX=0.5;exitY=0;exitDx=0;exitDy=0;" edge="1" parent="1" source="xvAV7KWPORQprkaNA7NY-98">
          <mxGeometry width="160" relative="1" as="geometry">
            <mxPoint x="1210" y="1290" as="sourcePoint" />
            <mxPoint x="1240" y="1270" as="targetPoint" />
          </mxGeometry>
        </mxCell>
        <mxCell id="xvAV7KWPORQprkaNA7NY-105" style="edgeStyle=none;shape=connector;rounded=0;orthogonalLoop=1;jettySize=auto;html=1;strokeColor=default;align=center;verticalAlign=middle;fontFamily=Helvetica;fontSize=11;fontColor=default;labelBackgroundColor=default;endArrow=none;exitX=1;exitY=1;exitDx=0;exitDy=0;entryX=0;entryY=0;entryDx=0;entryDy=0;" edge="1" parent="1" source="xvAV7KWPORQprkaNA7NY-97" target="xvAV7KWPORQprkaNA7NY-96">
          <mxGeometry relative="1" as="geometry">
            <mxPoint x="1480" y="1200" as="sourcePoint" />
            <mxPoint x="1520" y="1160" as="targetPoint" />
          </mxGeometry>
        </mxCell>
        <mxCell id="xvAV7KWPORQprkaNA7NY-106" style="edgeStyle=none;shape=connector;rounded=0;orthogonalLoop=1;jettySize=auto;html=1;exitX=0;exitY=0;exitDx=0;exitDy=0;entryX=0.75;entryY=1;entryDx=0;entryDy=0;strokeColor=default;align=center;verticalAlign=middle;fontFamily=Helvetica;fontSize=11;fontColor=default;labelBackgroundColor=default;endArrow=none;" edge="1" parent="1" source="xvAV7KWPORQprkaNA7NY-108" target="xvAV7KWPORQprkaNA7NY-84">
          <mxGeometry relative="1" as="geometry">
            <mxPoint x="1630" y="1050.0000000000005" as="targetPoint" />
          </mxGeometry>
        </mxCell>
        <mxCell id="xvAV7KWPORQprkaNA7NY-107" style="edgeStyle=none;shape=connector;rounded=0;orthogonalLoop=1;jettySize=auto;html=1;exitX=0.75;exitY=0;exitDx=0;exitDy=0;strokeColor=default;align=center;verticalAlign=middle;fontFamily=Helvetica;fontSize=11;fontColor=default;labelBackgroundColor=default;endArrow=none;entryX=0;entryY=1;entryDx=0;entryDy=0;" edge="1" parent="1" source="xvAV7KWPORQprkaNA7NY-108" target="xvAV7KWPORQprkaNA7NY-117">
          <mxGeometry relative="1" as="geometry">
            <mxPoint x="1830" y="1140" as="targetPoint" />
          </mxGeometry>
        </mxCell>
        <mxCell id="xvAV7KWPORQprkaNA7NY-108" value="map_uni_screen" style="swimlane;fontStyle=0;childLayout=stackLayout;horizontal=1;startSize=26;fillColor=none;horizontalStack=0;resizeParent=1;resizeParentMax=0;resizeLast=0;collapsible=1;marginBottom=0;whiteSpace=wrap;html=1;" vertex="1" parent="1">
          <mxGeometry x="1690" y="1190" width="140" height="70" as="geometry" />
        </mxCell>
        <mxCell id="xvAV7KWPORQprkaNA7NY-109" style="edgeStyle=none;shape=connector;rounded=0;orthogonalLoop=1;jettySize=auto;html=1;exitX=0.75;exitY=0;exitDx=0;exitDy=0;entryX=0.25;entryY=1;entryDx=0;entryDy=0;strokeColor=default;align=center;verticalAlign=middle;fontFamily=Helvetica;fontSize=11;fontColor=default;labelBackgroundColor=default;endArrow=none;" edge="1" parent="1" target="xvAV7KWPORQprkaNA7NY-108">
          <mxGeometry relative="1" as="geometry">
            <mxPoint x="1710" y="1450.0000000000005" as="sourcePoint" />
          </mxGeometry>
        </mxCell>
        <mxCell id="xvAV7KWPORQprkaNA7NY-110" style="edgeStyle=none;shape=connector;rounded=0;orthogonalLoop=1;jettySize=auto;html=1;exitX=1;exitY=0.5;exitDx=0;exitDy=0;entryX=0;entryY=0.75;entryDx=0;entryDy=0;strokeColor=default;align=center;verticalAlign=middle;fontFamily=Helvetica;fontSize=11;fontColor=default;labelBackgroundColor=default;endArrow=none;" edge="1" parent="1" target="xvAV7KWPORQprkaNA7NY-115">
          <mxGeometry relative="1" as="geometry">
            <mxPoint x="1745" y="1485" as="sourcePoint" />
          </mxGeometry>
        </mxCell>
        <mxCell id="xvAV7KWPORQprkaNA7NY-111" style="edgeStyle=none;shape=connector;rounded=0;orthogonalLoop=1;jettySize=auto;html=1;exitX=0;exitY=0.75;exitDx=0;exitDy=0;entryX=1;entryY=0.75;entryDx=0;entryDy=0;strokeColor=default;align=center;verticalAlign=middle;fontFamily=Helvetica;fontSize=11;fontColor=default;labelBackgroundColor=default;endArrow=none;" edge="1" parent="1" source="xvAV7KWPORQprkaNA7NY-112" target="xvAV7KWPORQprkaNA7NY-172">
          <mxGeometry relative="1" as="geometry">
            <mxPoint x="260" y="1350" as="targetPoint" />
          </mxGeometry>
        </mxCell>
        <mxCell id="xvAV7KWPORQprkaNA7NY-112" value="api_map" style="swimlane;fontStyle=0;childLayout=stackLayout;horizontal=1;startSize=26;fillColor=none;horizontalStack=0;resizeParent=1;resizeParentMax=0;resizeLast=0;collapsible=1;marginBottom=0;whiteSpace=wrap;html=1;" vertex="1" parent="1">
          <mxGeometry x="1595" y="1440" width="140" height="70" as="geometry" />
        </mxCell>
        <mxCell id="xvAV7KWPORQprkaNA7NY-113" value="result_search_screen" style="swimlane;fontStyle=0;childLayout=stackLayout;horizontal=1;startSize=26;fillColor=none;horizontalStack=0;resizeParent=1;resizeParentMax=0;resizeLast=0;collapsible=1;marginBottom=0;whiteSpace=wrap;html=1;" vertex="1" parent="1">
          <mxGeometry x="1775" y="1310" width="140" height="70" as="geometry" />
        </mxCell>
        <mxCell id="xvAV7KWPORQprkaNA7NY-114" value="" style="endArrow=diamondThin;endFill=1;endSize=24;html=1;rounded=0;strokeColor=default;align=center;verticalAlign=middle;fontFamily=Helvetica;fontSize=11;fontColor=default;labelBackgroundColor=default;edgeStyle=none;entryX=0.75;entryY=1;entryDx=0;entryDy=0;exitX=0.25;exitY=0;exitDx=0;exitDy=0;" edge="1" parent="1" source="xvAV7KWPORQprkaNA7NY-113" target="xvAV7KWPORQprkaNA7NY-108">
          <mxGeometry width="160" relative="1" as="geometry">
            <mxPoint x="1450" y="1120" as="sourcePoint" />
            <mxPoint x="1610" y="1120" as="targetPoint" />
          </mxGeometry>
        </mxCell>
        <mxCell id="xvAV7KWPORQprkaNA7NY-115" value="details_classroom_screen" style="swimlane;fontStyle=0;childLayout=stackLayout;horizontal=1;startSize=26;fillColor=none;horizontalStack=0;resizeParent=1;resizeParentMax=0;resizeLast=0;collapsible=1;marginBottom=0;whiteSpace=wrap;html=1;" vertex="1" parent="1">
          <mxGeometry x="1860" y="1419" width="140" height="70" as="geometry" />
        </mxCell>
        <mxCell id="xvAV7KWPORQprkaNA7NY-116" value="" style="endArrow=diamondThin;endFill=1;endSize=24;html=1;rounded=0;strokeColor=default;align=center;verticalAlign=middle;fontFamily=Helvetica;fontSize=11;fontColor=default;labelBackgroundColor=default;edgeStyle=none;entryX=1;entryY=1;entryDx=0;entryDy=0;exitX=0.636;exitY=0.057;exitDx=0;exitDy=0;exitPerimeter=0;" edge="1" parent="1" source="xvAV7KWPORQprkaNA7NY-115" target="xvAV7KWPORQprkaNA7NY-113">
          <mxGeometry width="160" relative="1" as="geometry">
            <mxPoint x="2080" y="1370" as="sourcePoint" />
            <mxPoint x="2065" y="1320" as="targetPoint" />
          </mxGeometry>
        </mxCell>
        <mxCell id="xvAV7KWPORQprkaNA7NY-117" value="fail_message_screen" style="swimlane;fontStyle=0;childLayout=stackLayout;horizontal=1;startSize=26;fillColor=none;horizontalStack=0;resizeParent=1;resizeParentMax=0;resizeLast=0;collapsible=1;marginBottom=0;whiteSpace=wrap;html=1;" vertex="1" parent="1">
          <mxGeometry x="1804" y="1080" width="140" height="70" as="geometry" />
        </mxCell>
        <mxCell id="xvAV7KWPORQprkaNA7NY-118" value="liveevents_starting_screen" style="swimlane;fontStyle=0;childLayout=stackLayout;horizontal=1;startSize=26;fillColor=none;horizontalStack=0;resizeParent=1;resizeParentMax=0;resizeLast=0;collapsible=1;marginBottom=0;whiteSpace=wrap;html=1;" vertex="1" parent="1">
          <mxGeometry x="1580" y="-20" width="170" height="70" as="geometry" />
        </mxCell>
        <mxCell id="xvAV7KWPORQprkaNA7NY-119" value="result_events_screen" style="swimlane;fontStyle=0;childLayout=stackLayout;horizontal=1;startSize=26;fillColor=none;horizontalStack=0;resizeParent=1;resizeParentMax=0;resizeLast=0;collapsible=1;marginBottom=0;whiteSpace=wrap;html=1;" vertex="1" parent="1">
          <mxGeometry x="1784" y="-130" width="170" height="70" as="geometry" />
        </mxCell>
        <mxCell id="xvAV7KWPORQprkaNA7NY-120" value="" style="endArrow=diamondThin;endFill=1;endSize=24;html=1;rounded=0;strokeColor=default;align=center;verticalAlign=middle;fontFamily=Helvetica;fontSize=11;fontColor=default;labelBackgroundColor=default;edgeStyle=none;entryX=1;entryY=0;entryDx=0;entryDy=0;exitX=0;exitY=1;exitDx=0;exitDy=0;" edge="1" parent="1" source="xvAV7KWPORQprkaNA7NY-119" target="xvAV7KWPORQprkaNA7NY-118">
          <mxGeometry width="160" relative="1" as="geometry">
            <mxPoint x="1440" y="100" as="sourcePoint" />
            <mxPoint x="1600" y="100" as="targetPoint" />
          </mxGeometry>
        </mxCell>
        <mxCell id="xvAV7KWPORQprkaNA7NY-121" style="edgeStyle=none;shape=connector;rounded=0;orthogonalLoop=1;jettySize=auto;html=1;exitX=1;exitY=1;exitDx=0;exitDy=0;entryX=0;entryY=0.5;entryDx=0;entryDy=0;strokeColor=default;align=center;verticalAlign=middle;fontFamily=Helvetica;fontSize=11;fontColor=default;labelBackgroundColor=default;endArrow=none;" edge="1" parent="1" source="xvAV7KWPORQprkaNA7NY-123" target="xvAV7KWPORQprkaNA7NY-119">
          <mxGeometry relative="1" as="geometry" />
        </mxCell>
        <mxCell id="xvAV7KWPORQprkaNA7NY-122" style="edgeStyle=none;shape=connector;rounded=0;orthogonalLoop=1;jettySize=auto;html=1;exitX=1;exitY=0.25;exitDx=0;exitDy=0;entryX=0;entryY=0.25;entryDx=0;entryDy=0;strokeColor=default;align=center;verticalAlign=middle;fontFamily=Helvetica;fontSize=11;fontColor=default;labelBackgroundColor=default;endArrow=none;" edge="1" parent="1" source="xvAV7KWPORQprkaNA7NY-123">
          <mxGeometry relative="1" as="geometry">
            <mxPoint x="2020" y="-232.5" as="targetPoint" />
          </mxGeometry>
        </mxCell>
        <mxCell id="xvAV7KWPORQprkaNA7NY-123" value="liveevents_api" style="swimlane;fontStyle=0;childLayout=stackLayout;horizontal=1;startSize=26;fillColor=none;horizontalStack=0;resizeParent=1;resizeParentMax=0;resizeLast=0;collapsible=1;marginBottom=0;whiteSpace=wrap;html=1;" vertex="1" parent="1">
          <mxGeometry x="1620" y="-230" width="140" height="70" as="geometry" />
        </mxCell>
        <mxCell id="xvAV7KWPORQprkaNA7NY-124" value="details_event_screen" style="swimlane;fontStyle=0;childLayout=stackLayout;horizontal=1;startSize=26;fillColor=none;horizontalStack=0;resizeParent=1;resizeParentMax=0;resizeLast=0;collapsible=1;marginBottom=0;whiteSpace=wrap;html=1;" vertex="1" parent="1">
          <mxGeometry x="2020" y="-262.5" width="170" height="70" as="geometry" />
        </mxCell>
        <mxCell id="xvAV7KWPORQprkaNA7NY-125" value="Extends" style="endArrow=block;endSize=16;endFill=0;html=1;rounded=0;entryX=1;entryY=0.25;entryDx=0;entryDy=0;exitX=0;exitY=0.75;exitDx=0;exitDy=0;" edge="1" parent="1" target="xvAV7KWPORQprkaNA7NY-119">
          <mxGeometry width="160" relative="1" as="geometry">
            <mxPoint x="2020" y="-197.5" as="sourcePoint" />
            <mxPoint x="1893" y="-42" as="targetPoint" />
          </mxGeometry>
        </mxCell>
        <mxCell id="xvAV7KWPORQprkaNA7NY-126" value="error_message_details_screen" style="swimlane;fontStyle=0;childLayout=stackLayout;horizontal=1;startSize=26;fillColor=none;horizontalStack=0;resizeParent=1;resizeParentMax=0;resizeLast=0;collapsible=1;marginBottom=0;whiteSpace=wrap;html=1;" vertex="1" parent="1">
          <mxGeometry x="1890" y="10" width="170" height="70" as="geometry" />
        </mxCell>
        <mxCell id="xvAV7KWPORQprkaNA7NY-127" value="" style="endArrow=diamondThin;endFill=1;endSize=24;html=1;rounded=0;strokeColor=default;align=center;verticalAlign=middle;fontFamily=Helvetica;fontSize=11;fontColor=default;labelBackgroundColor=default;edgeStyle=none;" edge="1" parent="1" source="xvAV7KWPORQprkaNA7NY-126">
          <mxGeometry width="160" relative="1" as="geometry">
            <mxPoint x="1490" y="60" as="sourcePoint" />
            <mxPoint x="1900" y="-60" as="targetPoint" />
          </mxGeometry>
        </mxCell>
        <mxCell id="xvAV7KWPORQprkaNA7NY-128" value="" style="endArrow=diamondThin;endFill=1;endSize=24;html=1;rounded=0;strokeColor=default;align=center;verticalAlign=middle;fontFamily=Helvetica;fontSize=11;fontColor=default;labelBackgroundColor=default;edgeStyle=none;entryX=0.25;entryY=0;entryDx=0;entryDy=0;exitX=0.75;exitY=1;exitDx=0;exitDy=0;" edge="1" parent="1" source="xvAV7KWPORQprkaNA7NY-129" target="xvAV7KWPORQprkaNA7NY-118">
          <mxGeometry width="160" relative="1" as="geometry">
            <mxPoint x="1600" y="-80" as="sourcePoint" />
            <mxPoint x="1650" y="60" as="targetPoint" />
          </mxGeometry>
        </mxCell>
        <mxCell id="xvAV7KWPORQprkaNA7NY-129" value="error_no_events_screen" style="swimlane;fontStyle=0;childLayout=stackLayout;horizontal=1;startSize=26;fillColor=none;horizontalStack=0;resizeParent=1;resizeParentMax=0;resizeLast=0;collapsible=1;marginBottom=0;whiteSpace=wrap;html=1;" vertex="1" parent="1">
          <mxGeometry x="1455" y="-130" width="170" height="70" as="geometry" />
        </mxCell>
        <mxCell id="xvAV7KWPORQprkaNA7NY-130" value="project_screen" style="swimlane;fontStyle=0;childLayout=stackLayout;horizontal=1;startSize=26;fillColor=none;horizontalStack=0;resizeParent=1;resizeParentMax=0;resizeLast=0;collapsible=1;marginBottom=0;whiteSpace=wrap;html=1;" vertex="1" parent="1">
          <mxGeometry x="-840" y="-590" width="140" height="70" as="geometry" />
        </mxCell>
        <mxCell id="xvAV7KWPORQprkaNA7NY-131" value="" style="endArrow=diamondThin;endFill=1;endSize=24;html=1;rounded=0;strokeColor=default;align=center;verticalAlign=middle;fontFamily=Helvetica;fontSize=11;fontColor=default;labelBackgroundColor=default;edgeStyle=none;entryX=0;entryY=0.5;entryDx=0;entryDy=0;exitX=1;exitY=0.5;exitDx=0;exitDy=0;" edge="1" parent="1" source="xvAV7KWPORQprkaNA7NY-130" target="xvAV7KWPORQprkaNA7NY-89">
          <mxGeometry width="160" relative="1" as="geometry">
            <mxPoint x="-700" y="-340" as="sourcePoint" />
            <mxPoint x="-540" y="-340" as="targetPoint" />
          </mxGeometry>
        </mxCell>
        <mxCell id="xvAV7KWPORQprkaNA7NY-132" style="edgeStyle=none;shape=connector;rounded=0;orthogonalLoop=1;jettySize=auto;html=1;exitX=0.5;exitY=1;exitDx=0;exitDy=0;entryX=0.093;entryY=-0.057;entryDx=0;entryDy=0;strokeColor=default;align=center;verticalAlign=middle;fontFamily=Helvetica;fontSize=11;fontColor=default;labelBackgroundColor=default;endArrow=none;entryPerimeter=0;" edge="1" parent="1" source="xvAV7KWPORQprkaNA7NY-136" target="xvAV7KWPORQprkaNA7NY-130">
          <mxGeometry relative="1" as="geometry" />
        </mxCell>
        <mxCell id="xvAV7KWPORQprkaNA7NY-133" style="edgeStyle=none;shape=connector;rounded=0;orthogonalLoop=1;jettySize=auto;html=1;exitX=0;exitY=0.25;exitDx=0;exitDy=0;strokeColor=default;align=center;verticalAlign=middle;fontFamily=Helvetica;fontSize=11;fontColor=default;labelBackgroundColor=default;endArrow=none;" edge="1" parent="1" source="xvAV7KWPORQprkaNA7NY-136" target="xvAV7KWPORQprkaNA7NY-138">
          <mxGeometry relative="1" as="geometry" />
        </mxCell>
        <mxCell id="xvAV7KWPORQprkaNA7NY-134" style="edgeStyle=none;shape=connector;rounded=0;orthogonalLoop=1;jettySize=auto;html=1;exitX=1;exitY=0.75;exitDx=0;exitDy=0;entryX=0;entryY=0.5;entryDx=0;entryDy=0;strokeColor=default;align=center;verticalAlign=middle;fontFamily=Helvetica;fontSize=11;fontColor=default;labelBackgroundColor=default;endArrow=none;" edge="1" parent="1" source="xvAV7KWPORQprkaNA7NY-136" target="xvAV7KWPORQprkaNA7NY-148">
          <mxGeometry relative="1" as="geometry" />
        </mxCell>
        <mxCell id="xvAV7KWPORQprkaNA7NY-135" style="edgeStyle=none;shape=connector;rounded=0;orthogonalLoop=1;jettySize=auto;html=1;exitX=0;exitY=0;exitDx=0;exitDy=0;entryX=0;entryY=0.25;entryDx=0;entryDy=0;strokeColor=default;align=center;verticalAlign=middle;fontFamily=Helvetica;fontSize=11;fontColor=default;labelBackgroundColor=default;endArrow=none;" edge="1" parent="1" source="xvAV7KWPORQprkaNA7NY-136" target="xvAV7KWPORQprkaNA7NY-158">
          <mxGeometry relative="1" as="geometry">
            <Array as="points">
              <mxPoint x="-910" y="-1110" />
            </Array>
          </mxGeometry>
        </mxCell>
        <mxCell id="xvAV7KWPORQprkaNA7NY-136" value="databasemg" style="swimlane;fontStyle=0;childLayout=stackLayout;horizontal=1;startSize=26;fillColor=none;horizontalStack=0;resizeParent=1;resizeParentMax=0;resizeLast=0;collapsible=1;marginBottom=0;whiteSpace=wrap;html=1;" vertex="1" parent="1">
          <mxGeometry x="-870" y="-810" width="140" height="70" as="geometry" />
        </mxCell>
        <mxCell id="xvAV7KWPORQprkaNA7NY-137" style="edgeStyle=none;shape=connector;rounded=0;orthogonalLoop=1;jettySize=auto;html=1;exitX=0.5;exitY=0;exitDx=0;exitDy=0;entryX=0.5;entryY=1;entryDx=0;entryDy=0;strokeColor=default;align=center;verticalAlign=middle;fontFamily=Helvetica;fontSize=11;fontColor=default;labelBackgroundColor=default;endArrow=none;" edge="1" parent="1" source="xvAV7KWPORQprkaNA7NY-138" target="xvAV7KWPORQprkaNA7NY-140">
          <mxGeometry relative="1" as="geometry" />
        </mxCell>
        <mxCell id="xvAV7KWPORQprkaNA7NY-138" value="project_details_screen" style="swimlane;fontStyle=0;childLayout=stackLayout;horizontal=1;startSize=26;fillColor=none;horizontalStack=0;resizeParent=1;resizeParentMax=0;resizeLast=0;collapsible=1;marginBottom=0;whiteSpace=wrap;html=1;" vertex="1" parent="1">
          <mxGeometry x="-1120" y="-610" width="140" height="140" as="geometry" />
        </mxCell>
        <mxCell id="xvAV7KWPORQprkaNA7NY-139" value="" style="endArrow=diamondThin;endFill=1;endSize=24;html=1;rounded=0;strokeColor=default;align=center;verticalAlign=middle;fontFamily=Helvetica;fontSize=11;fontColor=default;labelBackgroundColor=default;edgeStyle=none;entryX=0;entryY=0.75;entryDx=0;entryDy=0;" edge="1" parent="1" target="xvAV7KWPORQprkaNA7NY-130">
          <mxGeometry width="160" relative="1" as="geometry">
            <mxPoint x="-980" y="-520" as="sourcePoint" />
            <mxPoint x="-790" y="-340" as="targetPoint" />
          </mxGeometry>
        </mxCell>
        <mxCell id="xvAV7KWPORQprkaNA7NY-140" value="project_creator" style="swimlane;fontStyle=0;childLayout=stackLayout;horizontal=1;startSize=26;fillColor=none;horizontalStack=0;resizeParent=1;resizeParentMax=0;resizeLast=0;collapsible=1;marginBottom=0;whiteSpace=wrap;html=1;" vertex="1" parent="1">
          <mxGeometry x="-1100" y="-820" width="140" height="70" as="geometry" />
        </mxCell>
        <mxCell id="xvAV7KWPORQprkaNA7NY-141" value="" style="endArrow=diamondThin;endFill=1;endSize=24;html=1;rounded=0;strokeColor=default;align=center;verticalAlign=middle;fontFamily=Helvetica;fontSize=11;fontColor=default;labelBackgroundColor=default;edgeStyle=none;entryX=0.5;entryY=1;entryDx=0;entryDy=0;exitX=0.75;exitY=0;exitDx=0;exitDy=0;" edge="1" parent="1" source="xvAV7KWPORQprkaNA7NY-142" target="xvAV7KWPORQprkaNA7NY-138">
          <mxGeometry width="160" relative="1" as="geometry">
            <mxPoint x="-1135.1612903225805" y="-350" as="sourcePoint" />
            <mxPoint x="-950" y="-490" as="targetPoint" />
          </mxGeometry>
        </mxCell>
        <mxCell id="xvAV7KWPORQprkaNA7NY-142" value="sucess_request_screen" style="swimlane;fontStyle=0;childLayout=stackLayout;horizontal=1;startSize=26;fillColor=none;horizontalStack=0;resizeParent=1;resizeParentMax=0;resizeLast=0;collapsible=1;marginBottom=0;whiteSpace=wrap;html=1;" vertex="1" parent="1">
          <mxGeometry x="-1230" y="-240" width="140" height="70" as="geometry" />
        </mxCell>
        <mxCell id="xvAV7KWPORQprkaNA7NY-143" value="fail_request_screen" style="swimlane;fontStyle=0;childLayout=stackLayout;horizontal=1;startSize=26;fillColor=none;horizontalStack=0;resizeParent=1;resizeParentMax=0;resizeLast=0;collapsible=1;marginBottom=0;whiteSpace=wrap;html=1;" vertex="1" parent="1">
          <mxGeometry x="-980" y="-240" width="140" height="70" as="geometry" />
        </mxCell>
        <mxCell id="xvAV7KWPORQprkaNA7NY-144" value="" style="endArrow=diamondThin;endFill=1;endSize=24;html=1;rounded=0;strokeColor=default;align=center;verticalAlign=middle;fontFamily=Helvetica;fontSize=11;fontColor=default;labelBackgroundColor=default;edgeStyle=none;entryX=1;entryY=1;entryDx=0;entryDy=0;exitX=0.5;exitY=0;exitDx=0;exitDy=0;" edge="1" parent="1" source="xvAV7KWPORQprkaNA7NY-143" target="xvAV7KWPORQprkaNA7NY-138">
          <mxGeometry width="160" relative="1" as="geometry">
            <mxPoint x="-1110" y="-490" as="sourcePoint" />
            <mxPoint x="-950" y="-490" as="targetPoint" />
          </mxGeometry>
        </mxCell>
        <mxCell id="xvAV7KWPORQprkaNA7NY-145" value="" style="endArrow=diamondThin;endFill=1;endSize=24;html=1;rounded=0;strokeColor=default;align=center;verticalAlign=middle;fontFamily=Helvetica;fontSize=11;fontColor=default;labelBackgroundColor=default;edgeStyle=none;" edge="1" parent="1" source="xvAV7KWPORQprkaNA7NY-146">
          <mxGeometry width="160" relative="1" as="geometry">
            <mxPoint x="-820" y="-380" as="sourcePoint" />
            <mxPoint x="-720" y="-520" as="targetPoint" />
          </mxGeometry>
        </mxCell>
        <mxCell id="xvAV7KWPORQprkaNA7NY-146" value="no_project_screen" style="swimlane;fontStyle=0;childLayout=stackLayout;horizontal=1;startSize=26;fillColor=none;horizontalStack=0;resizeParent=1;resizeParentMax=0;resizeLast=0;collapsible=1;marginBottom=0;whiteSpace=wrap;html=1;" vertex="1" parent="1">
          <mxGeometry x="-775" y="-380" width="140" height="70" as="geometry" />
        </mxCell>
        <mxCell id="xvAV7KWPORQprkaNA7NY-147" value="" style="endArrow=diamondThin;endFill=1;endSize=24;html=1;rounded=0;strokeColor=default;align=center;verticalAlign=middle;fontFamily=Helvetica;fontSize=11;fontColor=default;labelBackgroundColor=default;edgeStyle=none;entryX=1;entryY=0;entryDx=0;entryDy=0;exitX=0.5;exitY=1;exitDx=0;exitDy=0;" edge="1" parent="1" source="xvAV7KWPORQprkaNA7NY-148" target="xvAV7KWPORQprkaNA7NY-89">
          <mxGeometry width="160" relative="1" as="geometry">
            <mxPoint x="-380" y="-610" as="sourcePoint" />
            <mxPoint x="-400" y="-550" as="targetPoint" />
          </mxGeometry>
        </mxCell>
        <mxCell id="xvAV7KWPORQprkaNA7NY-148" value="create_project_screen" style="swimlane;fontStyle=0;childLayout=stackLayout;horizontal=1;startSize=26;fillColor=none;horizontalStack=0;resizeParent=1;resizeParentMax=0;resizeLast=0;collapsible=1;marginBottom=0;whiteSpace=wrap;html=1;" vertex="1" parent="1">
          <mxGeometry x="-453" y="-700" width="140" height="70" as="geometry" />
        </mxCell>
        <mxCell id="xvAV7KWPORQprkaNA7NY-149" value="upload_success_project_screen" style="swimlane;fontStyle=0;childLayout=stackLayout;horizontal=1;startSize=26;fillColor=none;horizontalStack=0;resizeParent=1;resizeParentMax=0;resizeLast=0;collapsible=1;marginBottom=0;whiteSpace=wrap;html=1;" vertex="1" parent="1">
          <mxGeometry x="-473" y="-860" width="180" height="70" as="geometry" />
        </mxCell>
        <mxCell id="xvAV7KWPORQprkaNA7NY-150" value="" style="endArrow=diamondThin;endFill=1;endSize=24;html=1;rounded=0;strokeColor=default;align=center;verticalAlign=middle;fontFamily=Helvetica;fontSize=11;fontColor=default;labelBackgroundColor=default;edgeStyle=none;entryX=0.5;entryY=0;entryDx=0;entryDy=0;exitX=0.5;exitY=1;exitDx=0;exitDy=0;" edge="1" parent="1" source="xvAV7KWPORQprkaNA7NY-149" target="xvAV7KWPORQprkaNA7NY-148">
          <mxGeometry width="160" relative="1" as="geometry">
            <mxPoint x="-520" y="-570" as="sourcePoint" />
            <mxPoint x="-360" y="-570" as="targetPoint" />
          </mxGeometry>
        </mxCell>
        <mxCell id="xvAV7KWPORQprkaNA7NY-151" value="duplicate_project_error_screen" style="swimlane;fontStyle=0;childLayout=stackLayout;horizontal=1;startSize=26;fillColor=none;horizontalStack=0;resizeParent=1;resizeParentMax=0;resizeLast=0;collapsible=1;marginBottom=0;whiteSpace=wrap;html=1;" vertex="1" parent="1">
          <mxGeometry x="-255" y="-760" width="180" height="70" as="geometry" />
        </mxCell>
        <mxCell id="xvAV7KWPORQprkaNA7NY-152" value="" style="endArrow=diamondThin;endFill=1;endSize=24;html=1;rounded=0;strokeColor=default;align=center;verticalAlign=middle;fontFamily=Helvetica;fontSize=11;fontColor=default;labelBackgroundColor=default;edgeStyle=none;entryX=1;entryY=0.5;entryDx=0;entryDy=0;exitX=0;exitY=1;exitDx=0;exitDy=0;" edge="1" parent="1" target="xvAV7KWPORQprkaNA7NY-148">
          <mxGeometry width="160" relative="1" as="geometry">
            <mxPoint x="-250" y="-720" as="sourcePoint" />
            <mxPoint x="-120" y="-590" as="targetPoint" />
          </mxGeometry>
        </mxCell>
        <mxCell id="xvAV7KWPORQprkaNA7NY-153" value="personal_project_posts_screen" style="swimlane;fontStyle=0;childLayout=stackLayout;horizontal=1;startSize=26;fillColor=none;horizontalStack=0;resizeParent=1;resizeParentMax=0;resizeLast=0;collapsible=1;marginBottom=0;whiteSpace=wrap;html=1;" vertex="1" parent="1">
          <mxGeometry x="-680" y="-830" width="170" height="70" as="geometry" />
        </mxCell>
        <mxCell id="xvAV7KWPORQprkaNA7NY-154" value="" style="endArrow=diamondThin;endFill=1;endSize=24;html=1;rounded=0;strokeColor=default;align=center;verticalAlign=middle;fontFamily=Helvetica;fontSize=11;fontColor=default;labelBackgroundColor=default;edgeStyle=none;entryX=1;entryY=0;entryDx=0;entryDy=0;exitX=0.5;exitY=1;exitDx=0;exitDy=0;" edge="1" parent="1" source="xvAV7KWPORQprkaNA7NY-153" target="xvAV7KWPORQprkaNA7NY-130">
          <mxGeometry width="160" relative="1" as="geometry">
            <mxPoint x="-870" y="-340" as="sourcePoint" />
            <mxPoint x="-710" y="-340" as="targetPoint" />
          </mxGeometry>
        </mxCell>
        <mxCell id="xvAV7KWPORQprkaNA7NY-155" value="edit_project_post_screen" style="swimlane;fontStyle=0;childLayout=stackLayout;horizontal=1;startSize=26;fillColor=none;horizontalStack=0;resizeParent=1;resizeParentMax=0;resizeLast=0;collapsible=1;marginBottom=0;whiteSpace=wrap;html=1;" vertex="1" parent="1">
          <mxGeometry x="-650" y="-940" width="170" height="70" as="geometry" />
        </mxCell>
        <mxCell id="xvAV7KWPORQprkaNA7NY-156" value="Extends" style="endArrow=block;endSize=16;endFill=0;html=1;rounded=0;strokeColor=default;align=center;verticalAlign=middle;fontFamily=Helvetica;fontSize=11;fontColor=default;labelBackgroundColor=default;edgeStyle=none;entryX=0.629;entryY=0.014;entryDx=0;entryDy=0;exitX=0.75;exitY=1;exitDx=0;exitDy=0;entryPerimeter=0;" edge="1" parent="1" source="xvAV7KWPORQprkaNA7NY-155" target="xvAV7KWPORQprkaNA7NY-153">
          <mxGeometry width="160" relative="1" as="geometry">
            <mxPoint x="-870" y="-340" as="sourcePoint" />
            <mxPoint x="-710" y="-340" as="targetPoint" />
          </mxGeometry>
        </mxCell>
        <mxCell id="xvAV7KWPORQprkaNA7NY-157" style="edgeStyle=none;shape=connector;rounded=0;orthogonalLoop=1;jettySize=auto;html=1;exitX=0.5;exitY=1;exitDx=0;exitDy=0;entryX=0.5;entryY=0;entryDx=0;entryDy=0;strokeColor=default;align=center;verticalAlign=middle;fontFamily=Helvetica;fontSize=11;fontColor=default;labelBackgroundColor=default;endArrow=none;" edge="1" parent="1" source="xvAV7KWPORQprkaNA7NY-158" target="xvAV7KWPORQprkaNA7NY-155">
          <mxGeometry relative="1" as="geometry" />
        </mxCell>
        <mxCell id="xvAV7KWPORQprkaNA7NY-158" value="approval_screen" style="swimlane;fontStyle=0;childLayout=stackLayout;horizontal=1;startSize=26;fillColor=none;horizontalStack=0;resizeParent=1;resizeParentMax=0;resizeLast=0;collapsible=1;marginBottom=0;whiteSpace=wrap;html=1;" vertex="1" parent="1">
          <mxGeometry x="-635" y="-1100" width="170" height="70" as="geometry" />
        </mxCell>
        <mxCell id="xvAV7KWPORQprkaNA7NY-159" style="edgeStyle=none;shape=connector;rounded=0;orthogonalLoop=1;jettySize=auto;html=1;exitX=0.25;exitY=1;exitDx=0;exitDy=0;entryX=0.25;entryY=0;entryDx=0;entryDy=0;strokeColor=default;align=center;verticalAlign=middle;fontFamily=Helvetica;fontSize=11;fontColor=default;labelBackgroundColor=default;endArrow=none;" edge="1" parent="1" source="xvAV7KWPORQprkaNA7NY-160" target="xvAV7KWPORQprkaNA7NY-136">
          <mxGeometry relative="1" as="geometry" />
        </mxCell>
        <mxCell id="xvAV7KWPORQprkaNA7NY-160" value="delete_project_post_screen" style="swimlane;fontStyle=0;childLayout=stackLayout;horizontal=1;startSize=26;fillColor=none;horizontalStack=0;resizeParent=1;resizeParentMax=0;resizeLast=0;collapsible=1;marginBottom=0;whiteSpace=wrap;html=1;" vertex="1" parent="1">
          <mxGeometry x="-870" y="-1080" width="170" height="70" as="geometry" />
        </mxCell>
        <mxCell id="xvAV7KWPORQprkaNA7NY-161" value="Extends" style="endArrow=block;endSize=16;endFill=0;html=1;rounded=0;strokeColor=default;align=center;verticalAlign=middle;fontFamily=Helvetica;fontSize=11;fontColor=default;labelBackgroundColor=default;edgeStyle=none;entryX=0;entryY=0;entryDx=0;entryDy=0;exitX=0.75;exitY=1;exitDx=0;exitDy=0;" edge="1" parent="1" source="xvAV7KWPORQprkaNA7NY-160" target="xvAV7KWPORQprkaNA7NY-155">
          <mxGeometry width="160" relative="1" as="geometry">
            <mxPoint x="-780" y="-840" as="sourcePoint" />
            <mxPoint x="-620" y="-840" as="targetPoint" />
          </mxGeometry>
        </mxCell>
        <mxCell id="xvAV7KWPORQprkaNA7NY-162" style="edgeStyle=none;shape=connector;rounded=0;orthogonalLoop=1;jettySize=auto;html=1;exitX=0.25;exitY=0;exitDx=0;exitDy=0;strokeColor=default;align=center;verticalAlign=middle;fontFamily=Helvetica;fontSize=11;fontColor=default;labelBackgroundColor=default;endArrow=none;entryX=0.5;entryY=1;entryDx=0;entryDy=0;" edge="1" parent="1" source="xvAV7KWPORQprkaNA7NY-163" target="xvAV7KWPORQprkaNA7NY-174">
          <mxGeometry relative="1" as="geometry">
            <mxPoint x="505" y="700.0000000000005" as="targetPoint" />
          </mxGeometry>
        </mxCell>
        <mxCell id="xvAV7KWPORQprkaNA7NY-163" value="coffee_bar_filters_screen" style="swimlane;fontStyle=0;childLayout=stackLayout;horizontal=1;startSize=26;fillColor=none;horizontalStack=0;resizeParent=1;resizeParentMax=0;resizeLast=0;collapsible=1;marginBottom=0;whiteSpace=wrap;html=1;" vertex="1" parent="1">
          <mxGeometry x="661" y="1015" width="140" height="70" as="geometry" />
        </mxCell>
        <mxCell id="xvAV7KWPORQprkaNA7NY-164" value="Extends" style="endArrow=block;endSize=16;endFill=0;html=1;rounded=0;strokeColor=default;align=center;verticalAlign=middle;fontFamily=Helvetica;fontSize=11;fontColor=default;labelBackgroundColor=default;edgeStyle=none;entryX=0;entryY=1;entryDx=0;entryDy=0;exitX=1;exitY=0;exitDx=0;exitDy=0;" edge="1" parent="1" source="xvAV7KWPORQprkaNA7NY-163" target="xvAV7KWPORQprkaNA7NY-83">
          <mxGeometry width="160" relative="1" as="geometry">
            <mxPoint x="780" y="650" as="sourcePoint" />
            <mxPoint x="940" y="650" as="targetPoint" />
          </mxGeometry>
        </mxCell>
        <mxCell id="xvAV7KWPORQprkaNA7NY-165" style="edgeStyle=none;shape=connector;rounded=0;orthogonalLoop=1;jettySize=auto;html=1;exitX=1;exitY=0.5;exitDx=0;exitDy=0;strokeColor=default;align=center;verticalAlign=middle;fontFamily=Helvetica;fontSize=11;fontColor=default;labelBackgroundColor=default;endArrow=none;entryX=0;entryY=0.5;entryDx=0;entryDy=0;" edge="1" parent="1" source="xvAV7KWPORQprkaNA7NY-167" target="xvAV7KWPORQprkaNA7NY-163">
          <mxGeometry relative="1" as="geometry">
            <mxPoint x="440" y="1082.5000000000005" as="sourcePoint" />
            <mxPoint x="660" y="1060" as="targetPoint" />
          </mxGeometry>
        </mxCell>
        <mxCell id="xvAV7KWPORQprkaNA7NY-166" style="edgeStyle=none;shape=connector;rounded=0;orthogonalLoop=1;jettySize=auto;html=1;entryX=0.25;entryY=0;entryDx=0;entryDy=0;strokeColor=default;align=center;verticalAlign=middle;fontFamily=Helvetica;fontSize=11;fontColor=default;labelBackgroundColor=default;endArrow=none;exitX=0.25;exitY=1;exitDx=0;exitDy=0;" edge="1" parent="1" source="xvAV7KWPORQprkaNA7NY-167" target="xvAV7KWPORQprkaNA7NY-170">
          <mxGeometry relative="1" as="geometry">
            <mxPoint x="385" y="1080" as="sourcePoint" />
          </mxGeometry>
        </mxCell>
        <mxCell id="xvAV7KWPORQprkaNA7NY-167" value="databsemg_coffee" style="swimlane;fontStyle=0;childLayout=stackLayout;horizontal=1;startSize=26;fillColor=none;horizontalStack=0;resizeParent=1;resizeParentMax=0;resizeLast=0;collapsible=1;marginBottom=0;whiteSpace=wrap;html=1;" vertex="1" parent="1">
          <mxGeometry x="320" y="1010" width="140" height="70" as="geometry" />
        </mxCell>
        <mxCell id="xvAV7KWPORQprkaNA7NY-168" value="filters_results_screen" style="swimlane;fontStyle=0;childLayout=stackLayout;horizontal=1;startSize=26;fillColor=none;horizontalStack=0;resizeParent=1;resizeParentMax=0;resizeLast=0;collapsible=1;marginBottom=0;whiteSpace=wrap;html=1;" vertex="1" parent="1">
          <mxGeometry x="480" y="1140" width="140" height="70" as="geometry" />
        </mxCell>
        <mxCell id="xvAV7KWPORQprkaNA7NY-169" value="" style="endArrow=diamondThin;endFill=1;endSize=24;html=1;rounded=0;strokeColor=default;align=center;verticalAlign=middle;fontFamily=Helvetica;fontSize=11;fontColor=default;labelBackgroundColor=default;edgeStyle=none;entryX=0;entryY=1;entryDx=0;entryDy=0;exitX=1;exitY=0;exitDx=0;exitDy=0;" edge="1" parent="1" source="xvAV7KWPORQprkaNA7NY-168">
          <mxGeometry width="160" relative="1" as="geometry">
            <mxPoint x="520" y="1160" as="sourcePoint" />
            <mxPoint x="670" y="1095" as="targetPoint" />
          </mxGeometry>
        </mxCell>
        <mxCell id="xvAV7KWPORQprkaNA7NY-170" value="food/coffee_details_screen" style="swimlane;fontStyle=0;childLayout=stackLayout;horizontal=1;startSize=26;fillColor=none;horizontalStack=0;resizeParent=1;resizeParentMax=0;resizeLast=0;collapsible=1;marginBottom=0;whiteSpace=wrap;html=1;" vertex="1" parent="1">
          <mxGeometry x="350" y="1280" width="140" height="70" as="geometry" />
        </mxCell>
        <mxCell id="xvAV7KWPORQprkaNA7NY-171" value="" style="endArrow=diamondThin;endFill=1;endSize=24;html=1;rounded=0;strokeColor=default;align=center;verticalAlign=middle;fontFamily=Helvetica;fontSize=11;fontColor=default;labelBackgroundColor=default;edgeStyle=none;entryX=0;entryY=1;entryDx=0;entryDy=0;exitX=0.5;exitY=0;exitDx=0;exitDy=0;" edge="1" parent="1" source="xvAV7KWPORQprkaNA7NY-170" target="xvAV7KWPORQprkaNA7NY-168">
          <mxGeometry width="160" relative="1" as="geometry">
            <mxPoint x="520" y="1160" as="sourcePoint" />
            <mxPoint x="680" y="1160" as="targetPoint" />
          </mxGeometry>
        </mxCell>
        <mxCell id="xvAV7KWPORQprkaNA7NY-172" value="food/coffee_map_screen" style="swimlane;fontStyle=0;childLayout=stackLayout;horizontal=1;startSize=26;fillColor=none;horizontalStack=0;resizeParent=1;resizeParentMax=0;resizeLast=0;collapsible=1;marginBottom=0;whiteSpace=wrap;html=1;" vertex="1" parent="1">
          <mxGeometry x="110" y="1440" width="140" height="70" as="geometry" />
        </mxCell>
        <mxCell id="xvAV7KWPORQprkaNA7NY-173" value="" style="endArrow=diamondThin;endFill=1;endSize=24;html=1;rounded=0;strokeColor=default;align=center;verticalAlign=middle;fontFamily=Helvetica;fontSize=11;fontColor=default;labelBackgroundColor=default;edgeStyle=none;entryX=0;entryY=0.5;entryDx=0;entryDy=0;exitX=1;exitY=0.5;exitDx=0;exitDy=0;" edge="1" parent="1" target="xvAV7KWPORQprkaNA7NY-170">
          <mxGeometry width="160" relative="1" as="geometry">
            <mxPoint x="260" y="1465" as="sourcePoint" />
            <mxPoint x="280" y="840" as="targetPoint" />
          </mxGeometry>
        </mxCell>
        <mxCell id="xvAV7KWPORQprkaNA7NY-174" value="coffee_bar_filters_error_screen" style="swimlane;fontStyle=0;childLayout=stackLayout;horizontal=1;startSize=26;fillColor=none;horizontalStack=0;resizeParent=1;resizeParentMax=0;resizeLast=0;collapsible=1;marginBottom=0;whiteSpace=wrap;html=1;" vertex="1" parent="1">
          <mxGeometry x="410" y="830" width="170" height="70" as="geometry" />
        </mxCell>
        <mxCell id="xvAV7KWPORQprkaNA7NY-175" value="food/coffee_details error_screen" style="swimlane;fontStyle=0;childLayout=stackLayout;horizontal=1;startSize=26;fillColor=none;horizontalStack=0;resizeParent=1;resizeParentMax=0;resizeLast=0;collapsible=1;marginBottom=0;whiteSpace=wrap;html=1;" vertex="1" parent="1">
          <mxGeometry x="540" y="1260" width="140" height="80" as="geometry" />
        </mxCell>
        <mxCell id="xvAV7KWPORQprkaNA7NY-176" value="" style="endArrow=diamondThin;endFill=1;endSize=24;html=1;rounded=0;strokeColor=default;align=center;verticalAlign=middle;fontFamily=Helvetica;fontSize=11;fontColor=default;labelBackgroundColor=default;edgeStyle=none;entryX=1;entryY=0.75;entryDx=0;entryDy=0;exitX=0;exitY=0.5;exitDx=0;exitDy=0;" edge="1" parent="1" source="xvAV7KWPORQprkaNA7NY-175" target="xvAV7KWPORQprkaNA7NY-170">
          <mxGeometry width="160" relative="1" as="geometry">
            <mxPoint x="370" y="1150" as="sourcePoint" />
            <mxPoint x="530" y="1150" as="targetPoint" />
          </mxGeometry>
        </mxCell>
        <mxCell id="xvAV7KWPORQprkaNA7NY-177" value="bus_schedule_screen" style="swimlane;fontStyle=0;childLayout=stackLayout;horizontal=1;startSize=26;fillColor=none;horizontalStack=0;resizeParent=1;resizeParentMax=0;resizeLast=0;collapsible=1;marginBottom=0;whiteSpace=wrap;html=1;" vertex="1" parent="1">
          <mxGeometry x="1930" y="320" width="170" height="70" as="geometry" />
        </mxCell>
        <mxCell id="xvAV7KWPORQprkaNA7NY-178" value="Extends" style="endArrow=block;endSize=16;endFill=0;html=1;rounded=0;strokeColor=default;align=center;verticalAlign=middle;fontFamily=Helvetica;fontSize=11;fontColor=default;labelBackgroundColor=default;edgeStyle=none;entryX=1;entryY=0.25;entryDx=0;entryDy=0;exitX=0;exitY=0.75;exitDx=0;exitDy=0;" edge="1" parent="1" source="xvAV7KWPORQprkaNA7NY-177" target="xvAV7KWPORQprkaNA7NY-87">
          <mxGeometry width="160" relative="1" as="geometry">
            <mxPoint x="1490" y="370" as="sourcePoint" />
            <mxPoint x="1650" y="370" as="targetPoint" />
          </mxGeometry>
        </mxCell>
        <mxCell id="xvAV7KWPORQprkaNA7NY-179" style="edgeStyle=none;shape=connector;rounded=0;orthogonalLoop=1;jettySize=auto;html=1;exitX=1;exitY=1;exitDx=0;exitDy=0;entryX=0.5;entryY=0;entryDx=0;entryDy=0;strokeColor=default;align=center;verticalAlign=middle;fontFamily=Helvetica;fontSize=11;fontColor=default;labelBackgroundColor=default;endArrow=none;" edge="1" parent="1" source="xvAV7KWPORQprkaNA7NY-183" target="xvAV7KWPORQprkaNA7NY-177">
          <mxGeometry relative="1" as="geometry" />
        </mxCell>
        <mxCell id="xvAV7KWPORQprkaNA7NY-180" style="edgeStyle=none;shape=connector;rounded=0;orthogonalLoop=1;jettySize=auto;html=1;exitX=0;exitY=1;exitDx=0;exitDy=0;entryX=1;entryY=0;entryDx=0;entryDy=0;strokeColor=default;align=center;verticalAlign=middle;fontFamily=Helvetica;fontSize=11;fontColor=default;labelBackgroundColor=default;endArrow=none;" edge="1" parent="1" source="xvAV7KWPORQprkaNA7NY-183" target="xvAV7KWPORQprkaNA7NY-87">
          <mxGeometry relative="1" as="geometry" />
        </mxCell>
        <mxCell id="xvAV7KWPORQprkaNA7NY-181" style="edgeStyle=none;shape=connector;rounded=0;orthogonalLoop=1;jettySize=auto;html=1;exitX=0.5;exitY=1;exitDx=0;exitDy=0;entryX=0.5;entryY=0;entryDx=0;entryDy=0;strokeColor=default;align=center;verticalAlign=middle;fontFamily=Helvetica;fontSize=11;fontColor=default;labelBackgroundColor=default;endArrow=none;" edge="1" parent="1" source="xvAV7KWPORQprkaNA7NY-183" target="xvAV7KWPORQprkaNA7NY-186">
          <mxGeometry relative="1" as="geometry" />
        </mxCell>
        <mxCell id="xvAV7KWPORQprkaNA7NY-182" style="edgeStyle=none;shape=connector;rounded=0;orthogonalLoop=1;jettySize=auto;html=1;exitX=0.75;exitY=1;exitDx=0;exitDy=0;entryX=0;entryY=0;entryDx=0;entryDy=0;strokeColor=default;align=center;verticalAlign=middle;fontFamily=Helvetica;fontSize=11;fontColor=default;labelBackgroundColor=default;endArrow=none;" edge="1" parent="1" source="xvAV7KWPORQprkaNA7NY-183" target="xvAV7KWPORQprkaNA7NY-188">
          <mxGeometry relative="1" as="geometry">
            <Array as="points">
              <mxPoint x="1930" y="430" />
            </Array>
          </mxGeometry>
        </mxCell>
        <mxCell id="xvAV7KWPORQprkaNA7NY-183" value="databasemgMMM" style="swimlane;fontStyle=0;childLayout=stackLayout;horizontal=1;startSize=26;fillColor=none;horizontalStack=0;resizeParent=1;resizeParentMax=0;resizeLast=0;collapsible=1;marginBottom=0;whiteSpace=wrap;html=1;" vertex="1" parent="1">
          <mxGeometry x="1735" y="190" width="170" height="70" as="geometry" />
        </mxCell>
        <mxCell id="xvAV7KWPORQprkaNA7NY-184" value="bus_information_screen" style="swimlane;fontStyle=0;childLayout=stackLayout;horizontal=1;startSize=26;fillColor=none;horizontalStack=0;resizeParent=1;resizeParentMax=0;resizeLast=0;collapsible=1;marginBottom=0;whiteSpace=wrap;html=1;" vertex="1" parent="1">
          <mxGeometry x="2160" y="320" width="170" height="70" as="geometry" />
        </mxCell>
        <mxCell id="xvAV7KWPORQprkaNA7NY-185" value="" style="endArrow=diamondThin;endFill=1;endSize=24;html=1;rounded=0;strokeColor=default;align=center;verticalAlign=middle;fontFamily=Helvetica;fontSize=11;fontColor=default;labelBackgroundColor=default;edgeStyle=none;entryX=1;entryY=0.5;entryDx=0;entryDy=0;exitX=0;exitY=0.5;exitDx=0;exitDy=0;" edge="1" parent="1" source="xvAV7KWPORQprkaNA7NY-184" target="xvAV7KWPORQprkaNA7NY-177">
          <mxGeometry width="160" relative="1" as="geometry">
            <mxPoint x="1510" y="350" as="sourcePoint" />
            <mxPoint x="1670" y="350" as="targetPoint" />
          </mxGeometry>
        </mxCell>
        <mxCell id="xvAV7KWPORQprkaNA7NY-186" value="bus/train_tickets_screen" style="swimlane;fontStyle=0;childLayout=stackLayout;horizontal=1;startSize=26;fillColor=none;horizontalStack=0;resizeParent=1;resizeParentMax=0;resizeLast=0;collapsible=1;marginBottom=0;whiteSpace=wrap;html=1;" vertex="1" parent="1">
          <mxGeometry x="1800" y="494" width="170" height="70" as="geometry" />
        </mxCell>
        <mxCell id="xvAV7KWPORQprkaNA7NY-187" value="" style="endArrow=diamondThin;endFill=1;endSize=24;html=1;rounded=0;strokeColor=default;align=center;verticalAlign=middle;fontFamily=Helvetica;fontSize=11;fontColor=default;labelBackgroundColor=default;edgeStyle=none;entryX=1;entryY=1;entryDx=0;entryDy=0;exitX=0;exitY=0.25;exitDx=0;exitDy=0;" edge="1" parent="1" source="xvAV7KWPORQprkaNA7NY-186" target="xvAV7KWPORQprkaNA7NY-87">
          <mxGeometry width="160" relative="1" as="geometry">
            <mxPoint x="1720" y="360" as="sourcePoint" />
            <mxPoint x="1880" y="360" as="targetPoint" />
          </mxGeometry>
        </mxCell>
        <mxCell id="xvAV7KWPORQprkaNA7NY-188" value="personal_info_screen" style="swimlane;fontStyle=0;childLayout=stackLayout;horizontal=1;startSize=26;fillColor=none;horizontalStack=0;resizeParent=1;resizeParentMax=0;resizeLast=0;collapsible=1;marginBottom=0;whiteSpace=wrap;html=1;" vertex="1" parent="1">
          <mxGeometry x="2040" y="520" width="170" height="70" as="geometry" />
        </mxCell>
        <mxCell id="xvAV7KWPORQprkaNA7NY-189" value="Extends" style="endArrow=block;endSize=16;endFill=0;html=1;rounded=0;strokeColor=default;align=center;verticalAlign=middle;fontFamily=Helvetica;fontSize=11;fontColor=default;labelBackgroundColor=default;edgeStyle=none;entryX=1;entryY=0.75;entryDx=0;entryDy=0;exitX=0;exitY=0.75;exitDx=0;exitDy=0;" edge="1" parent="1">
          <mxGeometry width="160" relative="1" as="geometry">
            <mxPoint x="2050" y="582.5000000000005" as="sourcePoint" />
            <mxPoint x="1980" y="556.5" as="targetPoint" />
          </mxGeometry>
        </mxCell>
        <mxCell id="xvAV7KWPORQprkaNA7NY-190" value="personal_success_screen" style="swimlane;fontStyle=0;childLayout=stackLayout;horizontal=1;startSize=26;fillColor=none;horizontalStack=0;resizeParent=1;resizeParentMax=0;resizeLast=0;collapsible=1;marginBottom=0;whiteSpace=wrap;html=1;" vertex="1" parent="1">
          <mxGeometry x="1980" y="640" width="170" height="70" as="geometry" />
        </mxCell>
        <mxCell id="xvAV7KWPORQprkaNA7NY-191" value="" style="endArrow=diamondThin;endFill=1;endSize=24;html=1;rounded=0;strokeColor=default;align=center;verticalAlign=middle;fontFamily=Helvetica;fontSize=11;fontColor=default;labelBackgroundColor=default;edgeStyle=none;entryX=0.5;entryY=1;entryDx=0;entryDy=0;exitX=0.5;exitY=0;exitDx=0;exitDy=0;" edge="1" parent="1" source="xvAV7KWPORQprkaNA7NY-190">
          <mxGeometry width="160" relative="1" as="geometry">
            <mxPoint x="1830" y="450" as="sourcePoint" />
            <mxPoint x="2135" y="600.0000000000005" as="targetPoint" />
          </mxGeometry>
        </mxCell>
        <mxCell id="xvAV7KWPORQprkaNA7NY-192" value="error_personal_info_screen" style="swimlane;fontStyle=0;childLayout=stackLayout;horizontal=1;startSize=26;fillColor=none;horizontalStack=0;resizeParent=1;resizeParentMax=0;resizeLast=0;collapsible=1;marginBottom=0;whiteSpace=wrap;html=1;" vertex="1" parent="1">
          <mxGeometry x="2117" y="400" width="170" height="70" as="geometry" />
        </mxCell>
        <mxCell id="xvAV7KWPORQprkaNA7NY-193" value="" style="endArrow=diamondThin;endFill=1;endSize=24;html=1;rounded=0;strokeColor=default;align=center;verticalAlign=middle;fontFamily=Helvetica;fontSize=11;fontColor=default;labelBackgroundColor=default;edgeStyle=none;entryX=0.75;entryY=0;entryDx=0;entryDy=0;exitX=0.5;exitY=1;exitDx=0;exitDy=0;" edge="1" parent="1" source="xvAV7KWPORQprkaNA7NY-192" target="xvAV7KWPORQprkaNA7NY-188">
          <mxGeometry width="160" relative="1" as="geometry">
            <mxPoint x="1820" y="440" as="sourcePoint" />
            <mxPoint x="1980" y="440" as="targetPoint" />
          </mxGeometry>
        </mxCell>
        <mxCell id="xvAV7KWPORQprkaNA7NY-194" style="edgeStyle=none;shape=connector;rounded=0;orthogonalLoop=1;jettySize=auto;html=1;entryX=0.75;entryY=0;entryDx=0;entryDy=0;strokeColor=default;align=center;verticalAlign=middle;fontFamily=Helvetica;fontSize=11;fontColor=default;labelBackgroundColor=default;endArrow=none;" edge="1" parent="1" source="xvAV7KWPORQprkaNA7NY-195" target="xvAV7KWPORQprkaNA7NY-78">
          <mxGeometry relative="1" as="geometry">
            <Array as="points">
              <mxPoint x="-520" y="60" />
            </Array>
          </mxGeometry>
        </mxCell>
        <mxCell id="xvAV7KWPORQprkaNA7NY-195" value="forum_database_manager" style="swimlane;fontStyle=0;childLayout=stackLayout;horizontal=1;startSize=26;fillColor=none;horizontalStack=0;resizeParent=1;resizeParentMax=0;resizeLast=0;collapsible=1;marginBottom=0;whiteSpace=wrap;html=1;" vertex="1" parent="1">
          <mxGeometry x="-910" y="-100" width="150" height="70" as="geometry" />
        </mxCell>
        <mxCell id="xvAV7KWPORQprkaNA7NY-196" value="forum_temp_storage" style="swimlane;fontStyle=0;childLayout=stackLayout;horizontal=1;startSize=26;fillColor=none;horizontalStack=0;resizeParent=1;resizeParentMax=0;resizeLast=0;collapsible=1;marginBottom=0;whiteSpace=wrap;html=1;" vertex="1" parent="1">
          <mxGeometry x="-370" y="720" width="150" height="70" as="geometry" />
        </mxCell>
        <mxCell id="xvAV7KWPORQprkaNA7NY-197" value="forum_discussion_screen" style="swimlane;fontStyle=0;childLayout=stackLayout;horizontal=1;startSize=26;fillColor=none;horizontalStack=0;resizeParent=1;resizeParentMax=0;resizeLast=0;collapsible=1;marginBottom=0;whiteSpace=wrap;html=1;" vertex="1" parent="1">
          <mxGeometry x="-950" y="715" width="150" height="70" as="geometry" />
        </mxCell>
        <mxCell id="xvAV7KWPORQprkaNA7NY-198" value="" style="endArrow=diamondThin;endFill=1;endSize=24;html=1;rounded=0;strokeColor=default;align=center;verticalAlign=middle;fontFamily=Helvetica;fontSize=11;fontColor=default;labelBackgroundColor=default;entryX=0;entryY=0.75;entryDx=0;entryDy=0;exitX=1;exitY=0.5;exitDx=0;exitDy=0;" edge="1" parent="1" source="xvAV7KWPORQprkaNA7NY-197" target="xvAV7KWPORQprkaNA7NY-78">
          <mxGeometry width="160" relative="1" as="geometry">
            <mxPoint x="-520" y="620" as="sourcePoint" />
            <mxPoint x="-360" y="620" as="targetPoint" />
          </mxGeometry>
        </mxCell>
        <mxCell id="xvAV7KWPORQprkaNA7NY-199" value="forum_search_bar" style="swimlane;fontStyle=0;childLayout=stackLayout;horizontal=1;startSize=26;fillColor=none;horizontalStack=0;resizeParent=1;resizeParentMax=0;resizeLast=0;collapsible=1;marginBottom=0;whiteSpace=wrap;html=1;" vertex="1" parent="1">
          <mxGeometry x="-630" y="394" width="150" height="70" as="geometry" />
        </mxCell>
        <mxCell id="xvAV7KWPORQprkaNA7NY-200" value="" style="endArrow=diamondThin;endFill=1;endSize=24;html=1;rounded=0;strokeColor=default;align=center;verticalAlign=middle;fontFamily=Helvetica;fontSize=11;fontColor=default;labelBackgroundColor=default;exitX=1;exitY=0.5;exitDx=0;exitDy=0;entryX=0;entryY=0.25;entryDx=0;entryDy=0;" edge="1" parent="1" source="xvAV7KWPORQprkaNA7NY-199" target="xvAV7KWPORQprkaNA7NY-78">
          <mxGeometry width="160" relative="1" as="geometry">
            <mxPoint x="-550" y="515" as="sourcePoint" />
            <mxPoint x="-390" y="490" as="targetPoint" />
          </mxGeometry>
        </mxCell>
        <mxCell id="xvAV7KWPORQprkaNA7NY-201" style="edgeStyle=none;shape=connector;rounded=0;orthogonalLoop=1;jettySize=auto;html=1;entryX=0;entryY=0.5;entryDx=0;entryDy=0;strokeColor=default;align=center;verticalAlign=middle;fontFamily=Helvetica;fontSize=11;fontColor=default;labelBackgroundColor=default;endArrow=none;" edge="1" parent="1" source="xvAV7KWPORQprkaNA7NY-202" target="xvAV7KWPORQprkaNA7NY-199">
          <mxGeometry relative="1" as="geometry" />
        </mxCell>
        <mxCell id="xvAV7KWPORQprkaNA7NY-202" value="forum_search_results_screen" style="swimlane;fontStyle=0;childLayout=stackLayout;horizontal=1;startSize=26;fillColor=none;horizontalStack=0;resizeParent=1;resizeParentMax=0;resizeLast=0;collapsible=1;marginBottom=0;whiteSpace=wrap;html=1;" vertex="1" parent="1">
          <mxGeometry x="-827" y="430" width="170" height="70" as="geometry" />
        </mxCell>
        <mxCell id="xvAV7KWPORQprkaNA7NY-203" value="button_to_return_to_main_foeum_screen" style="swimlane;fontStyle=0;childLayout=stackLayout;horizontal=1;startSize=26;fillColor=none;horizontalStack=0;resizeParent=1;resizeParentMax=0;resizeLast=0;collapsible=1;marginBottom=0;whiteSpace=wrap;html=1;" vertex="1" parent="1">
          <mxGeometry x="-827" y="560" width="230" height="70" as="geometry" />
        </mxCell>
        <mxCell id="xvAV7KWPORQprkaNA7NY-204" value="" style="endArrow=diamondThin;endFill=1;endSize=24;html=1;rounded=0;strokeColor=default;align=center;verticalAlign=middle;fontFamily=Helvetica;fontSize=11;fontColor=default;labelBackgroundColor=default;exitX=0.5;exitY=0;exitDx=0;exitDy=0;entryX=0.5;entryY=1;entryDx=0;entryDy=0;" edge="1" parent="1" source="xvAV7KWPORQprkaNA7NY-203" target="xvAV7KWPORQprkaNA7NY-202">
          <mxGeometry width="160" relative="1" as="geometry">
            <mxPoint x="-550" y="425" as="sourcePoint" />
            <mxPoint x="-630" y="470" as="targetPoint" />
          </mxGeometry>
        </mxCell>
        <mxCell id="xvAV7KWPORQprkaNA7NY-205" value="forum_create_button" style="swimlane;fontStyle=0;childLayout=stackLayout;horizontal=1;startSize=26;fillColor=none;horizontalStack=0;resizeParent=1;resizeParentMax=0;resizeLast=0;collapsible=1;marginBottom=0;whiteSpace=wrap;html=1;" vertex="1" parent="1">
          <mxGeometry x="-827" y="310" width="170" height="70" as="geometry" />
        </mxCell>
        <mxCell id="xvAV7KWPORQprkaNA7NY-206" value="" style="endArrow=diamondThin;endFill=1;endSize=24;html=1;rounded=0;strokeColor=default;align=center;verticalAlign=middle;fontFamily=Helvetica;fontSize=11;fontColor=default;labelBackgroundColor=default;entryX=0.397;entryY=0.006;entryDx=0;entryDy=0;exitX=1;exitY=0.25;exitDx=0;exitDy=0;entryPerimeter=0;" edge="1" parent="1" source="xvAV7KWPORQprkaNA7NY-205" target="xvAV7KWPORQprkaNA7NY-78">
          <mxGeometry width="160" relative="1" as="geometry">
            <mxPoint x="-520" y="435" as="sourcePoint" />
            <mxPoint x="-340" y="522" as="targetPoint" />
            <Array as="points">
              <mxPoint x="-520" y="350" />
            </Array>
          </mxGeometry>
        </mxCell>
        <mxCell id="xvAV7KWPORQprkaNA7NY-207" style="edgeStyle=none;shape=connector;rounded=0;orthogonalLoop=1;jettySize=auto;html=1;entryX=0.5;entryY=0;entryDx=0;entryDy=0;strokeColor=default;align=center;verticalAlign=middle;fontFamily=Helvetica;fontSize=11;fontColor=default;labelBackgroundColor=default;endArrow=none;" edge="1" parent="1" source="xvAV7KWPORQprkaNA7NY-208" target="xvAV7KWPORQprkaNA7NY-205">
          <mxGeometry relative="1" as="geometry" />
        </mxCell>
        <mxCell id="xvAV7KWPORQprkaNA7NY-208" value="post_choice_menu" style="swimlane;fontStyle=0;childLayout=stackLayout;horizontal=1;startSize=26;fillColor=none;horizontalStack=0;resizeParent=1;resizeParentMax=0;resizeLast=0;collapsible=1;marginBottom=0;whiteSpace=wrap;html=1;" vertex="1" parent="1">
          <mxGeometry x="-850" y="200" width="170" height="70" as="geometry" />
        </mxCell>
        <mxCell id="xvAV7KWPORQprkaNA7NY-209" style="edgeStyle=none;shape=connector;rounded=0;orthogonalLoop=1;jettySize=auto;html=1;entryX=0;entryY=0.5;entryDx=0;entryDy=0;strokeColor=default;align=center;verticalAlign=middle;fontFamily=Helvetica;fontSize=11;fontColor=default;labelBackgroundColor=default;endArrow=none;" edge="1" parent="1" source="xvAV7KWPORQprkaNA7NY-212" target="xvAV7KWPORQprkaNA7NY-208">
          <mxGeometry relative="1" as="geometry" />
        </mxCell>
        <mxCell id="xvAV7KWPORQprkaNA7NY-210" style="edgeStyle=none;shape=connector;rounded=0;orthogonalLoop=1;jettySize=auto;html=1;entryX=0;entryY=0.5;entryDx=0;entryDy=0;strokeColor=default;align=center;verticalAlign=middle;fontFamily=Helvetica;fontSize=11;fontColor=default;labelBackgroundColor=default;endArrow=none;" edge="1" parent="1" source="xvAV7KWPORQprkaNA7NY-212" target="xvAV7KWPORQprkaNA7NY-195">
          <mxGeometry relative="1" as="geometry" />
        </mxCell>
        <mxCell id="xvAV7KWPORQprkaNA7NY-211" style="edgeStyle=none;shape=connector;rounded=0;orthogonalLoop=1;jettySize=auto;html=1;entryX=0.25;entryY=0;entryDx=0;entryDy=0;strokeColor=default;align=center;verticalAlign=middle;fontFamily=Helvetica;fontSize=11;fontColor=default;labelBackgroundColor=default;endArrow=none;" edge="1" parent="1" source="xvAV7KWPORQprkaNA7NY-212" target="xvAV7KWPORQprkaNA7NY-213">
          <mxGeometry relative="1" as="geometry">
            <Array as="points" />
          </mxGeometry>
        </mxCell>
        <mxCell id="xvAV7KWPORQprkaNA7NY-212" value="create_text_post" style="swimlane;fontStyle=0;childLayout=stackLayout;horizontal=1;startSize=26;fillColor=none;horizontalStack=0;resizeParent=1;resizeParentMax=0;resizeLast=0;collapsible=1;marginBottom=0;whiteSpace=wrap;html=1;" vertex="1" parent="1">
          <mxGeometry x="-1300" y="184" width="170" height="70" as="geometry" />
        </mxCell>
        <mxCell id="xvAV7KWPORQprkaNA7NY-213" value="forum_library_screen" style="swimlane;fontStyle=0;childLayout=stackLayout;horizontal=1;startSize=26;fillColor=none;horizontalStack=0;resizeParent=1;resizeParentMax=0;resizeLast=0;collapsible=1;marginBottom=0;whiteSpace=wrap;html=1;" vertex="1" parent="1">
          <mxGeometry x="-1370" y="560" width="150" height="70" as="geometry" />
        </mxCell>
        <mxCell id="xvAV7KWPORQprkaNA7NY-214" style="edgeStyle=none;shape=connector;rounded=0;orthogonalLoop=1;jettySize=auto;html=1;entryX=0.615;entryY=0.029;entryDx=0;entryDy=0;strokeColor=default;align=center;verticalAlign=middle;fontFamily=Helvetica;fontSize=11;fontColor=default;labelBackgroundColor=default;endArrow=none;entryPerimeter=0;" edge="1" parent="1" source="xvAV7KWPORQprkaNA7NY-217" target="xvAV7KWPORQprkaNA7NY-208">
          <mxGeometry relative="1" as="geometry" />
        </mxCell>
        <mxCell id="xvAV7KWPORQprkaNA7NY-215" style="edgeStyle=none;shape=connector;rounded=0;orthogonalLoop=1;jettySize=auto;html=1;entryX=0.5;entryY=1;entryDx=0;entryDy=0;strokeColor=default;align=center;verticalAlign=middle;fontFamily=Helvetica;fontSize=11;fontColor=default;labelBackgroundColor=default;endArrow=none;" edge="1" parent="1" source="xvAV7KWPORQprkaNA7NY-217" target="xvAV7KWPORQprkaNA7NY-195">
          <mxGeometry relative="1" as="geometry" />
        </mxCell>
        <mxCell id="xvAV7KWPORQprkaNA7NY-216" style="edgeStyle=none;shape=connector;rounded=0;orthogonalLoop=1;jettySize=auto;html=1;strokeColor=default;align=center;verticalAlign=middle;fontFamily=Helvetica;fontSize=11;fontColor=default;labelBackgroundColor=default;endArrow=none;entryX=0.5;entryY=0;entryDx=0;entryDy=0;" edge="1" parent="1" source="xvAV7KWPORQprkaNA7NY-217" target="xvAV7KWPORQprkaNA7NY-213">
          <mxGeometry relative="1" as="geometry">
            <mxPoint x="-1170" as="targetPoint" />
            <Array as="points">
              <mxPoint x="-1220" y="420" />
            </Array>
          </mxGeometry>
        </mxCell>
        <mxCell id="xvAV7KWPORQprkaNA7NY-217" value="create_image_video_post" style="swimlane;fontStyle=0;childLayout=stackLayout;horizontal=1;startSize=26;fillColor=none;horizontalStack=0;resizeParent=1;resizeParentMax=0;resizeLast=0;collapsible=1;marginBottom=0;whiteSpace=wrap;html=1;" vertex="1" parent="1">
          <mxGeometry x="-960" y="90" width="170" height="70" as="geometry" />
        </mxCell>
        <mxCell id="xvAV7KWPORQprkaNA7NY-218" style="edgeStyle=none;shape=connector;rounded=0;orthogonalLoop=1;jettySize=auto;html=1;entryX=0.75;entryY=0;entryDx=0;entryDy=0;strokeColor=default;align=center;verticalAlign=middle;fontFamily=Helvetica;fontSize=11;fontColor=default;labelBackgroundColor=default;endArrow=none;exitX=0.5;exitY=1;exitDx=0;exitDy=0;" edge="1" parent="1" source="xvAV7KWPORQprkaNA7NY-220" target="xvAV7KWPORQprkaNA7NY-213">
          <mxGeometry relative="1" as="geometry">
            <Array as="points" />
          </mxGeometry>
        </mxCell>
        <mxCell id="xvAV7KWPORQprkaNA7NY-219" style="edgeStyle=none;shape=connector;rounded=0;orthogonalLoop=1;jettySize=auto;html=1;strokeColor=default;align=center;verticalAlign=middle;fontFamily=Helvetica;fontSize=11;fontColor=default;labelBackgroundColor=default;endArrow=none;" edge="1" parent="1" source="xvAV7KWPORQprkaNA7NY-220">
          <mxGeometry relative="1" as="geometry">
            <mxPoint x="-880" y="-30" as="targetPoint" />
            <Array as="points">
              <mxPoint x="-1020" y="150" />
            </Array>
          </mxGeometry>
        </mxCell>
        <mxCell id="xvAV7KWPORQprkaNA7NY-220" value="createt_poll_post" style="swimlane;fontStyle=0;childLayout=stackLayout;horizontal=1;startSize=26;fillColor=none;horizontalStack=0;resizeParent=1;resizeParentMax=0;resizeLast=0;collapsible=1;marginBottom=0;whiteSpace=wrap;html=1;" vertex="1" parent="1">
          <mxGeometry x="-1130" y="380" width="170" height="70" as="geometry" />
        </mxCell>
        <mxCell id="xvAV7KWPORQprkaNA7NY-221" style="edgeStyle=none;shape=connector;rounded=0;orthogonalLoop=1;jettySize=auto;html=1;entryX=0.87;entryY=0.009;entryDx=0;entryDy=0;entryPerimeter=0;strokeColor=default;align=center;verticalAlign=middle;fontFamily=Helvetica;fontSize=11;fontColor=default;labelBackgroundColor=default;endArrow=none;" edge="1" parent="1" source="xvAV7KWPORQprkaNA7NY-208" target="xvAV7KWPORQprkaNA7NY-220">
          <mxGeometry relative="1" as="geometry" />
        </mxCell>
        <mxCell id="xvAV7KWPORQprkaNA7NY-222" style="edgeStyle=none;shape=connector;rounded=0;orthogonalLoop=1;jettySize=auto;html=1;entryX=1;entryY=0.5;entryDx=0;entryDy=0;strokeColor=default;align=center;verticalAlign=middle;fontFamily=Helvetica;fontSize=11;fontColor=default;labelBackgroundColor=default;endArrow=none;" edge="1" parent="1" source="xvAV7KWPORQprkaNA7NY-223" target="xvAV7KWPORQprkaNA7NY-213">
          <mxGeometry relative="1" as="geometry" />
        </mxCell>
        <mxCell id="xvAV7KWPORQprkaNA7NY-223" value="forum_library_button" style="swimlane;fontStyle=0;childLayout=stackLayout;horizontal=1;startSize=26;fillColor=none;horizontalStack=0;resizeParent=1;resizeParentMax=0;resizeLast=0;collapsible=1;marginBottom=0;whiteSpace=wrap;html=1;" vertex="1" parent="1">
          <mxGeometry x="-630" y="730" width="150" height="70" as="geometry" />
        </mxCell>
        <mxCell id="xvAV7KWPORQprkaNA7NY-224" value="" style="endArrow=diamondThin;endFill=1;endSize=24;html=1;rounded=0;strokeColor=default;align=center;verticalAlign=middle;fontFamily=Helvetica;fontSize=11;fontColor=default;labelBackgroundColor=default;entryX=0.25;entryY=1;entryDx=0;entryDy=0;exitX=0.75;exitY=0;exitDx=0;exitDy=0;" edge="1" parent="1" source="xvAV7KWPORQprkaNA7NY-223" target="xvAV7KWPORQprkaNA7NY-78">
          <mxGeometry width="160" relative="1" as="geometry">
            <mxPoint x="-470" y="439" as="sourcePoint" />
            <mxPoint x="-330" y="567" as="targetPoint" />
          </mxGeometry>
        </mxCell>
        <mxCell id="xvAV7KWPORQprkaNA7NY-225" value="" style="endArrow=diamondThin;endFill=1;endSize=24;html=1;rounded=0;strokeColor=default;align=center;verticalAlign=middle;fontFamily=Helvetica;fontSize=11;fontColor=default;labelBackgroundColor=default;entryX=0.5;entryY=1;entryDx=0;entryDy=0;exitX=0.25;exitY=0;exitDx=0;exitDy=0;" edge="1" parent="1" source="xvAV7KWPORQprkaNA7NY-227" target="xvAV7KWPORQprkaNA7NY-213">
          <mxGeometry width="160" relative="1" as="geometry">
            <mxPoint x="-1275.7142857142858" y="760" as="sourcePoint" />
            <mxPoint x="-732" y="510" as="targetPoint" />
          </mxGeometry>
        </mxCell>
        <mxCell id="xvAV7KWPORQprkaNA7NY-226" style="edgeStyle=none;shape=connector;rounded=0;orthogonalLoop=1;jettySize=auto;html=1;entryX=0.25;entryY=1;entryDx=0;entryDy=0;strokeColor=default;align=center;verticalAlign=middle;fontFamily=Helvetica;fontSize=11;fontColor=default;labelBackgroundColor=default;endArrow=none;" edge="1" parent="1" source="xvAV7KWPORQprkaNA7NY-227" target="xvAV7KWPORQprkaNA7NY-197">
          <mxGeometry relative="1" as="geometry" />
        </mxCell>
        <mxCell id="xvAV7KWPORQprkaNA7NY-227" value="my_discussion_screen" style="swimlane;fontStyle=0;childLayout=stackLayout;horizontal=1;startSize=26;fillColor=none;horizontalStack=0;resizeParent=1;resizeParentMax=0;resizeLast=0;collapsible=1;marginBottom=0;whiteSpace=wrap;html=1;" vertex="1" parent="1">
          <mxGeometry x="-1260" y="810" width="150" height="70" as="geometry" />
        </mxCell>
        <mxCell id="xvAV7KWPORQprkaNA7NY-228" value="confirmation_window" style="swimlane;fontStyle=0;childLayout=stackLayout;horizontal=1;startSize=26;fillColor=none;horizontalStack=0;resizeParent=1;resizeParentMax=0;resizeLast=0;collapsible=1;marginBottom=0;whiteSpace=wrap;html=1;" vertex="1" parent="1">
          <mxGeometry x="-1530" y="790" width="150" height="70" as="geometry" />
        </mxCell>
        <mxCell id="xvAV7KWPORQprkaNA7NY-229" value="" style="endArrow=diamondThin;endFill=1;endSize=24;html=1;rounded=0;strokeColor=default;align=center;verticalAlign=middle;fontFamily=Helvetica;fontSize=11;fontColor=default;labelBackgroundColor=default;entryX=0;entryY=0.5;entryDx=0;entryDy=0;exitX=1;exitY=0.5;exitDx=0;exitDy=0;" edge="1" parent="1" source="xvAV7KWPORQprkaNA7NY-228" target="xvAV7KWPORQprkaNA7NY-227">
          <mxGeometry width="160" relative="1" as="geometry">
            <mxPoint x="-1212" y="820" as="sourcePoint" />
            <mxPoint x="-1285" y="640" as="targetPoint" />
          </mxGeometry>
        </mxCell>
        <mxCell id="xvAV7KWPORQprkaNA7NY-230" value="confirmation_window" style="swimlane;fontStyle=0;childLayout=stackLayout;horizontal=1;startSize=26;fillColor=none;horizontalStack=0;resizeParent=1;resizeParentMax=0;resizeLast=0;collapsible=1;marginBottom=0;whiteSpace=wrap;html=1;" vertex="1" parent="1">
          <mxGeometry x="-1520" y="960" width="150" height="70" as="geometry" />
        </mxCell>
        <mxCell id="xvAV7KWPORQprkaNA7NY-231" value="" style="endArrow=diamondThin;endFill=1;endSize=24;html=1;rounded=0;strokeColor=default;align=center;verticalAlign=middle;fontFamily=Helvetica;fontSize=11;fontColor=default;labelBackgroundColor=default;entryX=0.5;entryY=0;entryDx=0;entryDy=0;exitX=0.5;exitY=1;exitDx=0;exitDy=0;" edge="1" parent="1" source="xvAV7KWPORQprkaNA7NY-228" target="xvAV7KWPORQprkaNA7NY-230">
          <mxGeometry width="160" relative="1" as="geometry">
            <mxPoint x="-1370" y="835" as="sourcePoint" />
            <mxPoint x="-1250" y="855" as="targetPoint" />
          </mxGeometry>
        </mxCell>
        <mxCell id="xvAV7KWPORQprkaNA7NY-232" value="export_button" style="swimlane;fontStyle=0;childLayout=stackLayout;horizontal=1;startSize=26;fillColor=none;horizontalStack=0;resizeParent=1;resizeParentMax=0;resizeLast=0;collapsible=1;marginBottom=0;whiteSpace=wrap;html=1;" vertex="1" parent="1">
          <mxGeometry x="-760" y="1170" width="140" height="70" as="geometry" />
        </mxCell>
        <mxCell id="xvAV7KWPORQprkaNA7NY-233" value="import_button" style="swimlane;fontStyle=0;childLayout=stackLayout;horizontal=1;startSize=26;fillColor=none;horizontalStack=0;resizeParent=1;resizeParentMax=0;resizeLast=0;collapsible=1;marginBottom=0;whiteSpace=wrap;html=1;" vertex="1" parent="1">
          <mxGeometry x="-770" y="1280" width="140" height="70" as="geometry" />
        </mxCell>
        <mxCell id="xvAV7KWPORQprkaNA7NY-234" value="" style="endArrow=diamondThin;endFill=1;endSize=24;html=1;rounded=0;strokeColor=default;align=center;verticalAlign=middle;fontFamily=Helvetica;fontSize=11;fontColor=default;labelBackgroundColor=default;entryX=0;entryY=0.25;entryDx=0;entryDy=0;exitX=1;exitY=0.25;exitDx=0;exitDy=0;" edge="1" parent="1" source="xvAV7KWPORQprkaNA7NY-232" target="xvAV7KWPORQprkaNA7NY-91">
          <mxGeometry width="160" relative="1" as="geometry">
            <mxPoint x="-630" y="1426" as="sourcePoint" />
            <mxPoint x="-428" y="1260" as="targetPoint" />
          </mxGeometry>
        </mxCell>
        <mxCell id="xvAV7KWPORQprkaNA7NY-235" value="" style="endArrow=diamondThin;endFill=1;endSize=24;html=1;rounded=0;strokeColor=default;align=center;verticalAlign=middle;fontFamily=Helvetica;fontSize=11;fontColor=default;labelBackgroundColor=default;entryX=0;entryY=1;entryDx=0;entryDy=0;exitX=1;exitY=0.25;exitDx=0;exitDy=0;" edge="1" parent="1" source="xvAV7KWPORQprkaNA7NY-233" target="xvAV7KWPORQprkaNA7NY-91">
          <mxGeometry width="160" relative="1" as="geometry">
            <mxPoint x="-610" y="1198" as="sourcePoint" />
            <mxPoint x="-390" y="1188" as="targetPoint" />
          </mxGeometry>
        </mxCell>
        <mxCell id="xvAV7KWPORQprkaNA7NY-236" value="position_swap_button" style="swimlane;fontStyle=0;childLayout=stackLayout;horizontal=1;startSize=26;fillColor=none;horizontalStack=0;resizeParent=1;resizeParentMax=0;resizeLast=0;collapsible=1;marginBottom=0;whiteSpace=wrap;html=1;" vertex="1" parent="1">
          <mxGeometry x="-782" y="1380" width="140" height="70" as="geometry" />
        </mxCell>
        <mxCell id="xvAV7KWPORQprkaNA7NY-237" value="" style="endArrow=diamondThin;endFill=1;endSize=24;html=1;rounded=0;strokeColor=default;align=center;verticalAlign=middle;fontFamily=Helvetica;fontSize=11;fontColor=default;labelBackgroundColor=default;entryX=0.25;entryY=1;entryDx=0;entryDy=0;exitX=1;exitY=0.25;exitDx=0;exitDy=0;" edge="1" parent="1" source="xvAV7KWPORQprkaNA7NY-236" target="xvAV7KWPORQprkaNA7NY-91">
          <mxGeometry width="160" relative="1" as="geometry">
            <mxPoint x="-620" y="1308" as="sourcePoint" />
            <mxPoint x="-390" y="1240" as="targetPoint" />
          </mxGeometry>
        </mxCell>
        <mxCell id="xvAV7KWPORQprkaNA7NY-238" value="&lt;div&gt;complete_button&lt;/div&gt;" style="swimlane;fontStyle=0;childLayout=stackLayout;horizontal=1;startSize=26;fillColor=none;horizontalStack=0;resizeParent=1;resizeParentMax=0;resizeLast=0;collapsible=1;marginBottom=0;whiteSpace=wrap;html=1;" vertex="1" parent="1">
          <mxGeometry x="-553" y="1560" width="140" height="70" as="geometry" />
        </mxCell>
        <mxCell id="xvAV7KWPORQprkaNA7NY-239" value="" style="endArrow=diamondThin;endFill=1;endSize=24;html=1;rounded=0;strokeColor=default;align=center;verticalAlign=middle;fontFamily=Helvetica;fontSize=11;fontColor=default;labelBackgroundColor=default;exitX=1;exitY=0.25;exitDx=0;exitDy=0;" edge="1" parent="1" source="xvAV7KWPORQprkaNA7NY-238">
          <mxGeometry width="160" relative="1" as="geometry">
            <mxPoint x="-632" y="1408" as="sourcePoint" />
            <mxPoint x="-320" y="1230" as="targetPoint" />
          </mxGeometry>
        </mxCell>
        <mxCell id="xvAV7KWPORQprkaNA7NY-240" value="delete_menu" style="swimlane;fontStyle=0;childLayout=stackLayout;horizontal=1;startSize=26;fillColor=none;horizontalStack=0;resizeParent=1;resizeParentMax=0;resizeLast=0;collapsible=1;marginBottom=0;whiteSpace=wrap;html=1;" vertex="1" parent="1">
          <mxGeometry x="-1030" y="1480" width="140" height="70" as="geometry" />
        </mxCell>
        <mxCell id="xvAV7KWPORQprkaNA7NY-241" value="&lt;div&gt;edit_button&lt;/div&gt;" style="swimlane;fontStyle=0;childLayout=stackLayout;horizontal=1;startSize=26;fillColor=none;horizontalStack=0;resizeParent=1;resizeParentMax=0;resizeLast=0;collapsible=1;marginBottom=0;whiteSpace=wrap;html=1;" vertex="1" parent="1">
          <mxGeometry x="-1040" y="1260" width="140" height="70" as="geometry" />
        </mxCell>
        <mxCell id="xvAV7KWPORQprkaNA7NY-242" value="" style="endArrow=diamondThin;endFill=1;endSize=24;html=1;rounded=0;strokeColor=default;align=center;verticalAlign=middle;fontFamily=Helvetica;fontSize=11;fontColor=default;labelBackgroundColor=default;entryX=0;entryY=0.75;entryDx=0;entryDy=0;exitX=1;exitY=0.25;exitDx=0;exitDy=0;" edge="1" parent="1" source="xvAV7KWPORQprkaNA7NY-241" target="xvAV7KWPORQprkaNA7NY-91">
          <mxGeometry width="160" relative="1" as="geometry">
            <mxPoint x="-690" y="1280" as="sourcePoint" />
            <mxPoint x="-460" y="1212" as="targetPoint" />
          </mxGeometry>
        </mxCell>
        <mxCell id="xvAV7KWPORQprkaNA7NY-243" value="&lt;div&gt;editable_list_screen&lt;/div&gt;" style="swimlane;fontStyle=0;childLayout=stackLayout;horizontal=1;startSize=26;fillColor=none;horizontalStack=0;resizeParent=1;resizeParentMax=0;resizeLast=0;collapsible=1;marginBottom=0;whiteSpace=wrap;html=1;" vertex="1" parent="1">
          <mxGeometry x="-1240" y="1370" width="140" height="70" as="geometry" />
        </mxCell>
        <mxCell id="xvAV7KWPORQprkaNA7NY-244" value="" style="endArrow=diamondThin;endFill=1;endSize=24;html=1;rounded=0;strokeColor=default;align=center;verticalAlign=middle;fontFamily=Helvetica;fontSize=11;fontColor=default;labelBackgroundColor=default;entryX=0;entryY=0.5;entryDx=0;entryDy=0;exitX=0.636;exitY=0.005;exitDx=0;exitDy=0;exitPerimeter=0;" edge="1" parent="1" source="xvAV7KWPORQprkaNA7NY-243" target="xvAV7KWPORQprkaNA7NY-241">
          <mxGeometry width="160" relative="1" as="geometry">
            <mxPoint x="-1450" y="1515" as="sourcePoint" />
            <mxPoint x="-950" y="1450" as="targetPoint" />
          </mxGeometry>
        </mxCell>
        <mxCell id="xvAV7KWPORQprkaNA7NY-245" value="&lt;div&gt;delete_button&lt;/div&gt;" style="swimlane;fontStyle=0;childLayout=stackLayout;horizontal=1;startSize=26;fillColor=none;horizontalStack=0;resizeParent=1;resizeParentMax=0;resizeLast=0;collapsible=1;marginBottom=0;whiteSpace=wrap;html=1;" vertex="1" parent="1">
          <mxGeometry x="-730" y="1499" width="140" height="70" as="geometry" />
        </mxCell>
        <mxCell id="xvAV7KWPORQprkaNA7NY-246" value="" style="endArrow=diamondThin;endFill=1;endSize=24;html=1;rounded=0;strokeColor=default;align=center;verticalAlign=middle;fontFamily=Helvetica;fontSize=11;fontColor=default;labelBackgroundColor=default;exitX=1;exitY=0;exitDx=0;exitDy=0;" edge="1" parent="1" source="xvAV7KWPORQprkaNA7NY-245">
          <mxGeometry width="160" relative="1" as="geometry">
            <mxPoint x="-403" y="1588" as="sourcePoint" />
            <mxPoint x="-350" y="1230" as="targetPoint" />
          </mxGeometry>
        </mxCell>
        <mxCell id="xvAV7KWPORQprkaNA7NY-247" value="" style="endArrow=diamondThin;endFill=1;endSize=24;html=1;rounded=0;strokeColor=default;align=center;verticalAlign=middle;fontFamily=Helvetica;fontSize=11;fontColor=default;labelBackgroundColor=default;entryX=0;entryY=0.5;entryDx=0;entryDy=0;exitX=1;exitY=0.75;exitDx=0;exitDy=0;" edge="1" parent="1" source="xvAV7KWPORQprkaNA7NY-240" target="xvAV7KWPORQprkaNA7NY-245">
          <mxGeometry width="160" relative="1" as="geometry">
            <mxPoint x="-930.5" y="1515" as="sourcePoint" />
            <mxPoint x="-819.5" y="1440" as="targetPoint" />
          </mxGeometry>
        </mxCell>
        <mxCell id="xvAV7KWPORQprkaNA7NY-248" value="&lt;div&gt;error_news_screen&lt;/div&gt;" style="swimlane;fontStyle=0;childLayout=stackLayout;horizontal=1;startSize=26;fillColor=none;horizontalStack=0;resizeParent=1;resizeParentMax=0;resizeLast=0;collapsible=1;marginBottom=0;whiteSpace=wrap;html=1;" vertex="1" parent="1">
          <mxGeometry x="730" y="190" width="140" height="70" as="geometry" />
        </mxCell>
        <mxCell id="xvAV7KWPORQprkaNA7NY-249" value="Extends" style="endArrow=block;endSize=16;endFill=0;html=1;rounded=0;strokeColor=default;align=center;verticalAlign=middle;fontFamily=Helvetica;fontSize=11;fontColor=default;labelBackgroundColor=default;edgeStyle=none;exitX=0.75;exitY=1;exitDx=0;exitDy=0;" edge="1" parent="1" source="xvAV7KWPORQprkaNA7NY-248" target="xvAV7KWPORQprkaNA7NY-80">
          <mxGeometry width="160" relative="1" as="geometry">
            <mxPoint x="987" y="190" as="sourcePoint" />
            <mxPoint x="767" y="285" as="targetPoint" />
          </mxGeometry>
        </mxCell>
        <mxCell id="xvAV7KWPORQprkaNA7NY-250" value="news_provider_api" style="swimlane;fontStyle=0;childLayout=stackLayout;horizontal=1;startSize=26;fillColor=none;horizontalStack=0;resizeParent=1;resizeParentMax=0;resizeLast=0;collapsible=1;marginBottom=0;whiteSpace=wrap;html=1;" vertex="1" parent="1">
          <mxGeometry x="720" y="80" width="140" height="70" as="geometry" />
        </mxCell>
        <mxCell id="xvAV7KWPORQprkaNA7NY-251" value="" style="endArrow=none;html=1;rounded=0;exitX=0.207;exitY=0;exitDx=0;exitDy=0;exitPerimeter=0;" edge="1" parent="1" source="xvAV7KWPORQprkaNA7NY-80">
          <mxGeometry width="50" height="50" relative="1" as="geometry">
            <mxPoint x="927" y="310" as="sourcePoint" />
            <mxPoint x="860" y="140" as="targetPoint" />
          </mxGeometry>
        </mxCell>
        <mxCell id="xvAV7KWPORQprkaNA7NY-252" value="article_screen" style="swimlane;fontStyle=0;childLayout=stackLayout;horizontal=1;startSize=26;fillColor=none;horizontalStack=0;resizeParent=1;resizeParentMax=0;resizeLast=0;collapsible=1;marginBottom=0;whiteSpace=wrap;html=1;" vertex="1" parent="1">
          <mxGeometry x="810" y="-40" width="140" height="70" as="geometry" />
        </mxCell>
        <mxCell id="xvAV7KWPORQprkaNA7NY-253" value="" style="endArrow=none;html=1;rounded=0;exitX=0.45;exitY=0.029;exitDx=0;exitDy=0;exitPerimeter=0;entryX=0.75;entryY=1;entryDx=0;entryDy=0;" edge="1" parent="1" source="xvAV7KWPORQprkaNA7NY-80" target="xvAV7KWPORQprkaNA7NY-252">
          <mxGeometry width="50" height="50" relative="1" as="geometry">
            <mxPoint x="930" y="230" as="sourcePoint" />
            <mxPoint x="880" y="50" as="targetPoint" />
          </mxGeometry>
        </mxCell>
        <mxCell id="xvAV7KWPORQprkaNA7NY-254" value="" style="endArrow=none;html=1;rounded=0;entryX=0.5;entryY=1;entryDx=0;entryDy=0;exitX=0.75;exitY=0;exitDx=0;exitDy=0;" edge="1" parent="1" source="xvAV7KWPORQprkaNA7NY-250" target="xvAV7KWPORQprkaNA7NY-252">
          <mxGeometry width="50" height="50" relative="1" as="geometry">
            <mxPoint x="870" y="200" as="sourcePoint" />
            <mxPoint x="920" y="150" as="targetPoint" />
          </mxGeometry>
        </mxCell>
        <mxCell id="xvAV7KWPORQprkaNA7NY-255" value="empty_tasks_screen" style="swimlane;fontStyle=0;childLayout=stackLayout;horizontal=1;startSize=26;fillColor=none;horizontalStack=0;resizeParent=1;resizeParentMax=0;resizeLast=0;collapsible=1;marginBottom=0;whiteSpace=wrap;html=1;" vertex="1" parent="1">
          <mxGeometry x="-300" y="1310" width="140" height="70" as="geometry" />
        </mxCell>
        <mxCell id="xvAV7KWPORQprkaNA7NY-256" value="Extends" style="endArrow=block;endSize=16;endFill=0;html=1;rounded=0;strokeColor=default;align=center;verticalAlign=middle;fontFamily=Helvetica;fontSize=11;fontColor=default;labelBackgroundColor=default;edgeStyle=none;exitX=0.357;exitY=0;exitDx=0;exitDy=0;exitPerimeter=0;" edge="1" parent="1" source="xvAV7KWPORQprkaNA7NY-255">
          <mxGeometry width="160" relative="1" as="geometry">
            <mxPoint x="-270" y="1300" as="sourcePoint" />
            <mxPoint x="-270" y="1230" as="targetPoint" />
          </mxGeometry>
        </mxCell>
        <mxCell id="xvAV7KWPORQprkaNA7NY-257" value="" style="endArrow=none;html=1;rounded=0;entryX=0;entryY=0.75;entryDx=0;entryDy=0;exitX=1;exitY=0.5;exitDx=0;exitDy=0;" edge="1" parent="1" source="xvAV7KWPORQprkaNA7NY-233" target="xvAV7KWPORQprkaNA7NY-255">
          <mxGeometry width="50" height="50" relative="1" as="geometry">
            <mxPoint x="-450" y="1460" as="sourcePoint" />
            <mxPoint x="-400" y="1410" as="targetPoint" />
          </mxGeometry>
        </mxCell>
        <mxCell id="xvAV7KWPORQprkaNA7NY-258" value="" style="endArrow=none;html=1;rounded=0;entryX=0;entryY=0.5;entryDx=0;entryDy=0;" edge="1" parent="1" target="xvAV7KWPORQprkaNA7NY-255">
          <mxGeometry width="50" height="50" relative="1" as="geometry">
            <mxPoint x="-300" y="1345" as="sourcePoint" />
            <mxPoint x="-350" y="1290" as="targetPoint" />
          </mxGeometry>
        </mxCell>
      </root>
    </mxGraphModel>
  </diagram>
</mxfile>
